<?xml version="1.0" encoding="UTF-8" standalone="no"?><svg xmlns="http://www.w3.org/2000/svg" xmlns:xlink="http://www.w3.org/1999/xlink" contentStyleType="text/css" height="512px" preserveAspectRatio="none" style="width:440px;height:512px;background:#FFFFFF;" version="1.1" viewBox="0 0 440 512" width="440px" zoomAndPan="magnify"><defs/><g><rect fill="#FFFFFF" height="77.2656" style="stroke:#181818;stroke-width:1.0;" width="10" x="153.5" y="329.3594"/><line style="stroke:#181818;stroke-width:0.5;stroke-dasharray:5.0,5.0;" x1="23" x2="23" y1="81.2969" y2="431.625"/><line style="stroke:#181818;stroke-width:0.5;stroke-dasharray:5.0,5.0;" x1="158.5" x2="158.5" y1="81.2969" y2="431.625"/><line style="stroke:#181818;stroke-width:0.5;stroke-dasharray:5.0,5.0;" x1="385.5" x2="385.5" y1="81.2969" y2="431.625"/><text fill="#000000" font-family="sans-serif" font-size="14" lengthAdjust="spacing" textLength="31" x="5" y="77.9951">User</text><ellipse cx="23.5" cy="13.5" fill="#E2E2F0" rx="8" ry="8" style="stroke:#181818;stroke-width:0.5;"/><path d="M23.5,21.5 L23.5,48.5 M10.5,29.5 L36.5,29.5 M23.5,48.5 L10.5,63.5 M23.5,48.5 L36.5,63.5 " fill="none" style="stroke:#181818;stroke-width:0.5;"/><text fill="#000000" font-family="sans-serif" font-size="14" lengthAdjust="spacing" textLength="31" x="5" y="443.6201">User</text><ellipse cx="23.5" cy="455.4219" fill="#E2E2F0" rx="8" ry="8" style="stroke:#181818;stroke-width:0.5;"/><path d="M23.5,463.4219 L23.5,490.4219 M10.5,471.4219 L36.5,471.4219 M23.5,490.4219 L10.5,505.4219 M23.5,490.4219 L36.5,505.4219 " fill="none" style="stroke:#181818;stroke-width:0.5;"/><rect fill="#E2E2F0" height="30.2969" rx="2.5" ry="2.5" style="stroke:#181818;stroke-width:0.5;" width="72" x="122.5" y="50"/><text fill="#000000" font-family="sans-serif" font-size="14" lengthAdjust="spacing" textLength="58" x="129.5" y="69.9951">Sistema</text><rect fill="#E2E2F0" height="30.2969" rx="2.5" ry="2.5" style="stroke:#181818;stroke-width:0.5;" width="72" x="122.5" y="430.625"/><text fill="#000000" font-family="sans-serif" font-size="14" lengthAdjust="spacing" textLength="58" x="129.5" y="450.6201">Sistema</text><rect fill="#E2E2F0" height="30.2969" rx="2.5" ry="2.5" style="stroke:#181818;stroke-width:0.5;" width="98" x="336.5" y="50"/><text fill="#000000" font-family="sans-serif" font-size="14" lengthAdjust="spacing" textLength="84" x="343.5" y="69.9951">Google SSO</text><rect fill="#E2E2F0" height="30.2969" rx="2.5" ry="2.5" style="stroke:#181818;stroke-width:0.5;" width="98" x="336.5" y="430.625"/><text fill="#000000" font-family="sans-serif" font-size="14" lengthAdjust="spacing" textLength="84" x="343.5" y="450.6201">Google SSO</text><rect fill="#FFFFFF" height="77.2656" style="stroke:#181818;stroke-width:1.0;" width="10" x="153.5" y="329.3594"/><polygon fill="#181818" points="146.5,108.4297,156.5,112.4297,146.5,116.4297,150.5,112.4297" style="stroke:#181818;stroke-width:1.0;"/><line style="stroke:#181818;stroke-width:1.0;" x1="23.5" x2="152.5" y1="112.4297" y2="112.4297"/><text fill="#000000" font-family="sans-serif" font-size="13" lengthAdjust="spacing" textLength="106" x="30.5" y="107.3638">Acessar sistema</text><line style="stroke:#181818;stroke-width:1.0;" x1="158.5" x2="200.5" y1="141.5625" y2="141.5625"/><line style="stroke:#181818;stroke-width:1.0;" x1="200.5" x2="200.5" y1="141.5625" y2="154.5625"/><line style="stroke:#181818;stroke-width:1.0;" x1="159.5" x2="200.5" y1="154.5625" y2="154.5625"/><polygon fill="#181818" points="169.5,150.5625,159.5,154.5625,169.5,158.5625,165.5,154.5625" style="stroke:#181818;stroke-width:1.0;"/><text fill="#000000" font-family="sans-serif" font-size="13" lengthAdjust="spacing" textLength="195" x="165.5" y="136.4966">Solicitar credenciais de acesso</text><polygon fill="#181818" points="373.5,179.6953,383.5,183.6953,373.5,187.6953,377.5,183.6953" style="stroke:#181818;stroke-width:1.0;"/><line style="stroke:#181818;stroke-width:1.0;" x1="23.5" x2="379.5" y1="183.6953" y2="183.6953"/><text fill="#000000" font-family="sans-serif" font-size="13" lengthAdjust="spacing" textLength="201" x="30.5" y="178.6294">Fornecer credenciais de acesso</text><polygon fill="#181818" points="373.5,208.8281,383.5,212.8281,373.5,216.8281,377.5,212.8281" style="stroke:#181818;stroke-width:1.0;"/><line style="stroke:#181818;stroke-width:1.0;" x1="158.5" x2="379.5" y1="212.8281" y2="212.8281"/><text fill="#000000" font-family="sans-serif" font-size="13" lengthAdjust="spacing" textLength="137" x="165.5" y="207.7622">Solicitar autenticação</text><polygon fill="#181818" points="169.5,237.9609,159.5,241.9609,169.5,245.9609,165.5,241.9609" style="stroke:#181818;stroke-width:1.0;"/><line style="stroke:#181818;stroke-width:1.0;" x1="163.5" x2="384.5" y1="241.9609" y2="241.9609"/><text fill="#000000" font-family="sans-serif" font-size="13" lengthAdjust="spacing" textLength="190" x="175.5" y="236.895">Enviar dados de autenticação</text><polygon fill="#181818" points="373.5,267.0938,383.5,271.0938,373.5,275.0938,377.5,271.0938" style="stroke:#181818;stroke-width:1.0;"/><line style="stroke:#181818;stroke-width:1.0;" x1="158.5" x2="379.5" y1="271.0938" y2="271.0938"/><text fill="#000000" font-family="sans-serif" font-size="13" lengthAdjust="spacing" textLength="203" x="165.5" y="266.0278">Verificar dados de autenticação</text><polygon fill="#181818" points="169.5,296.2266,159.5,300.2266,169.5,304.2266,165.5,300.2266" style="stroke:#181818;stroke-width:1.0;"/><line style="stroke:#181818;stroke-width:1.0;stroke-dasharray:2.0,2.0;" x1="163.5" x2="384.5" y1="300.2266" y2="300.2266"/><text fill="#000000" font-family="sans-serif" font-size="13" lengthAdjust="spacing" textLength="188" x="175.5" y="295.1606">Autenticação aprovada (JWT)</text><polygon fill="#181818" points="34.5,325.3594,24.5,329.3594,34.5,333.3594,30.5,329.3594" style="stroke:#181818;stroke-width:1.0;"/><line style="stroke:#181818;stroke-width:1.0;stroke-dasharray:2.0,2.0;" x1="28.5" x2="152.5" y1="329.3594" y2="329.3594"/><text fill="#000000" font-family="sans-serif" font-size="13" lengthAdjust="spacing" textLength="111" x="40.5" y="324.2935">Acesso aprovado</text><line style="stroke:#181818;stroke-width:1.0;" x1="163.5" x2="205.5" y1="358.4922" y2="358.4922"/><line style="stroke:#181818;stroke-width:1.0;" x1="205.5" x2="205.5" y1="358.4922" y2="371.4922"/><line style="stroke:#181818;stroke-width:1.0;" x1="164.5" x2="205.5" y1="371.4922" y2="371.4922"/><polygon fill="#181818" points="174.5,367.4922,164.5,371.4922,174.5,375.4922,170.5,371.4922" style="stroke:#181818;stroke-width:1.0;"/><text fill="#000000" font-family="sans-serif" font-size="13" lengthAdjust="spacing" textLength="200" x="170.5" y="353.4263">Verificar permissões de acesso</text><line style="stroke:#181818;stroke-width:1.0;" x1="163.5" x2="205.5" y1="405.625" y2="405.625"/><line style="stroke:#181818;stroke-width:1.0;" x1="205.5" x2="205.5" y1="405.625" y2="418.625"/><line style="stroke:#181818;stroke-width:1.0;" x1="158.5" x2="205.5" y1="418.625" y2="418.625"/><polygon fill="#181818" points="168.5,414.625,158.5,418.625,168.5,422.625,164.5,418.625" style="stroke:#181818;stroke-width:1.0;"/><text fill="#000000" font-family="sans-serif" font-size="13" lengthAdjust="spacing" textLength="142" x="170.5" y="400.5591">Carregar página inicial</text><!--SRC=[TP0zJWGn34RxdCBQ2Weki0KIGZ0I3KNugQt4Z2pDnYCdp7rMMt02JZ0Nms73Z4PestplUuwDeOZ2QoPr8shXm2Ec0ZlFkT01Tu0P_3RgHFg1mFldtxHphjRXvXRy7ku2vOmA-Tntlhrx6KnGB0bAaL9Wv0oH06j15aMtXqVHH84kaRvXgn4_2oNx7yvVyqbSrqO-f8ajZHZbtDzYVvutKlwmryjaDRRjDW7Wg39XHBXwUd-vhaR3wYRj3WjX3Wo59onsDxSSPHqzaXuuv_cR_grgt3sgKb-n-TXpGk1ag-FW8gtQ7m00]--></g></svg>