<?xml version="1.0" encoding="UTF-8" standalone="no"?><svg xmlns="http://www.w3.org/2000/svg" xmlns:xlink="http://www.w3.org/1999/xlink" contentScriptType="application/ecmascript" contentStyleType="text/css" height="316px" preserveAspectRatio="none" style="width:396px;height:316px;background:#FFFFFF;" version="1.1" viewBox="0 0 396 316" width="396px" zoomAndPan="magnify"><defs><filter height="300%" id="f18pr6bo7lf7gj" width="300%" x="-1" y="-1"><feGaussianBlur result="blurOut" stdDeviation="2.0"/><feColorMatrix in="blurOut" result="blurOut2" type="matrix" values="0 0 0 0 0 0 0 0 0 0 0 0 0 0 0 0 0 0 .4 0"/><feOffset dx="4.0" dy="4.0" in="blurOut2" result="blurOut3"/><feBlend in="SourceGraphic" in2="blurOut3" mode="normal"/></filter></defs><g><rect fill="#FFFFFF" filter="url(#f18pr6bo7lf7gj)" height="30.3516" style="stroke:#A80036;stroke-width:1.0;" width="10" x="47" y="121.9609"/><rect fill="#FFFFFF" filter="url(#f18pr6bo7lf7gj)" height="30.3516" style="stroke:#A80036;stroke-width:1.0;" width="10" x="47" y="182.6641"/><rect fill="#FFFFFF" filter="url(#f18pr6bo7lf7gj)" height="91.0547" style="stroke:#A80036;stroke-width:1.0;" width="10" x="349" y="121.9609"/><line style="stroke:#A80036;stroke-width:1.0;stroke-dasharray:5.0,5.0;" x1="52" x2="52" y1="89.6094" y2="231.0156"/><line style="stroke:#A80036;stroke-width:1.0;stroke-dasharray:5.0,5.0;" x1="354" x2="354" y1="89.6094" y2="231.0156"/><text fill="#000000" font-family="sans-serif" font-size="14" lengthAdjust="spacing" textLength="88" x="5" y="86.5332">FleetManager</text><ellipse cx="52" cy="15" fill="#FEFECE" filter="url(#f18pr6bo7lf7gj)" rx="8" ry="8" style="stroke:#A80036;stroke-width:2.0;"/><path d="M52,23 L52,50 M39,31 L65,31 M52,50 L39,65 M52,50 L65,65 " fill="none" filter="url(#f18pr6bo7lf7gj)" style="stroke:#A80036;stroke-width:2.0;"/><text fill="#000000" font-family="sans-serif" font-size="14" lengthAdjust="spacing" textLength="88" x="5" y="244.5488">FleetManager</text><ellipse cx="52" cy="257.625" fill="#FEFECE" filter="url(#f18pr6bo7lf7gj)" rx="8" ry="8" style="stroke:#A80036;stroke-width:2.0;"/><path d="M52,265.625 L52,292.625 M39,273.625 L65,273.625 M52,292.625 L39,307.625 M52,292.625 L65,307.625 " fill="none" filter="url(#f18pr6bo7lf7gj)" style="stroke:#A80036;stroke-width:2.0;"/><rect fill="#FEFECE" filter="url(#f18pr6bo7lf7gj)" height="31.6094" rx="10" ry="10" style="stroke:#A80036;stroke-width:1.5;" width="60" x="322" y="53"/><text fill="#000000" font-family="sans-serif" font-size="14" lengthAdjust="spacing" textLength="46" x="329" y="74.5332">System</text><rect fill="#FEFECE" filter="url(#f18pr6bo7lf7gj)" height="31.6094" rx="10" ry="10" style="stroke:#A80036;stroke-width:1.5;" width="60" x="322" y="230.0156"/><text fill="#000000" font-family="sans-serif" font-size="14" lengthAdjust="spacing" textLength="46" x="329" y="251.5488">System</text><rect fill="#FFFFFF" filter="url(#f18pr6bo7lf7gj)" height="30.3516" style="stroke:#A80036;stroke-width:1.0;" width="10" x="47" y="121.9609"/><rect fill="#FFFFFF" filter="url(#f18pr6bo7lf7gj)" height="30.3516" style="stroke:#A80036;stroke-width:1.0;" width="10" x="47" y="182.6641"/><rect fill="#FFFFFF" filter="url(#f18pr6bo7lf7gj)" height="91.0547" style="stroke:#A80036;stroke-width:1.0;" width="10" x="349" y="121.9609"/><polygon fill="#A80036" points="337,117.9609,347,121.9609,337,125.9609,341,121.9609" style="stroke:#A80036;stroke-width:1.0;"/><line style="stroke:#A80036;stroke-width:2.0;" x1="57" x2="343" y1="121.9609" y2="121.9609"/><text fill="#000000" font-family="sans-serif" font-size="13" lengthAdjust="spacing" textLength="133" x="64" y="117.1045">wants to create a truck</text><polygon fill="#A80036" points="63,148.3125,53,152.3125,63,156.3125,59,152.3125" style="stroke:#A80036;stroke-width:1.0;"/><line style="stroke:#A80036;stroke-width:2.0;stroke-dasharray:2.0,2.0;" x1="57" x2="348" y1="152.3125" y2="152.3125"/><text fill="#000000" font-family="sans-serif" font-size="13" lengthAdjust="spacing" textLength="97" x="69" y="147.4561">asks for the data</text><polygon fill="#A80036" points="337,178.6641,347,182.6641,337,186.6641,341,182.6641" style="stroke:#A80036;stroke-width:1.0;"/><line style="stroke:#A80036;stroke-width:2.0;" x1="57" x2="343" y1="182.6641" y2="182.6641"/><text fill="#000000" font-family="sans-serif" font-size="13" lengthAdjust="spacing" textLength="98" x="64" y="177.8076">provides the data</text><polygon fill="#A80036" points="63,209.0156,53,213.0156,63,217.0156,59,213.0156" style="stroke:#A80036;stroke-width:1.0;"/><line style="stroke:#A80036;stroke-width:2.0;stroke-dasharray:2.0,2.0;" x1="57" x2="353" y1="213.0156" y2="213.0156"/><text fill="#000000" font-family="sans-serif" font-size="13" lengthAdjust="spacing" textLength="268" x="69" y="208.1592">Confirms the creation or informs about an error</text><!--MD5=[743ff1cfa9055691be25784c777baa03]
@startuml N1_VP

skinparam sequenceArrowThickness 2
skinparam roundcorner 20


actor FleetManager
participant System

FleetManager -> System : wants to create a truck
activate FleetManager
activate System
System - -> FleetManager : asks for the data
deactivate FleetManager
FleetManager -> System : provides the data
activate FleetManager
System - -> FleetManager : Confirms the creation or informs about an error
deactivate FleetManager
deactivate System


@enduml

PlantUML version 1.2022.1(Tue Feb 01 18:19:58 GMT 2022)
(GPL source distribution)
Java Runtime: OpenJDK Runtime Environment
JVM: OpenJDK 64-Bit Server VM
Default Encoding: Cp1252
Language: pt
Country: PT
--></g></svg>