<?xml version="1.0" encoding="UTF-8" standalone="no"?><svg xmlns="http://www.w3.org/2000/svg" xmlns:xlink="http://www.w3.org/1999/xlink" contentScriptType="application/ecmascript" contentStyleType="text/css" height="498px" preserveAspectRatio="none" style="width:753px;height:498px;background:#FFFFFF;" version="1.1" viewBox="0 0 753 498" width="753px" zoomAndPan="magnify"><defs><filter height="300%" id="fd8b3hx4341mw" width="300%" x="-1" y="-1"><feGaussianBlur result="blurOut" stdDeviation="2.0"/><feColorMatrix in="blurOut" result="blurOut2" type="matrix" values="0 0 0 0 0 0 0 0 0 0 0 0 0 0 0 0 0 0 .4 0"/><feOffset dx="4.0" dy="4.0" in="blurOut2" result="blurOut3"/><feBlend in="SourceGraphic" in2="blurOut3" mode="normal"/></filter></defs><g><rect fill="#FFFFFF" filter="url(#fd8b3hx4341mw)" height="30.3516" style="stroke:#A80036;stroke-width:1.0;" width="10" x="47" y="121.9609"/><rect fill="#FFFFFF" filter="url(#fd8b3hx4341mw)" height="212.4609" style="stroke:#A80036;stroke-width:1.0;" width="10" x="47" y="182.6641"/><rect fill="#FFFFFF" filter="url(#fd8b3hx4341mw)" height="273.1641" style="stroke:#A80036;stroke-width:1.0;" width="10" x="320" y="121.9609"/><rect fill="#FFFFFF" filter="url(#fd8b3hx4341mw)" height="151.7578" style="stroke:#A80036;stroke-width:1.0;" width="10" x="444.5" y="213.0156"/><rect fill="#FFFFFF" filter="url(#fd8b3hx4341mw)" height="91.0547" style="stroke:#A80036;stroke-width:1.0;" width="10" x="593.5" y="243.3672"/><rect fill="#FFFFFF" filter="url(#fd8b3hx4341mw)" height="30.3516" style="stroke:#A80036;stroke-width:1.0;" width="10" x="702.5" y="273.7188"/><line style="stroke:#A80036;stroke-width:1.0;stroke-dasharray:5.0,5.0;" x1="52" x2="52" y1="89.6094" y2="413.125"/><line style="stroke:#A80036;stroke-width:1.0;stroke-dasharray:5.0,5.0;" x1="324.5" x2="324.5" y1="89.6094" y2="413.125"/><line style="stroke:#A80036;stroke-width:1.0;stroke-dasharray:5.0,5.0;" x1="449.5" x2="449.5" y1="89.6094" y2="413.125"/><line style="stroke:#A80036;stroke-width:1.0;stroke-dasharray:5.0,5.0;" x1="598.5" x2="598.5" y1="89.6094" y2="413.125"/><line style="stroke:#A80036;stroke-width:1.0;stroke-dasharray:5.0,5.0;" x1="707.5" x2="707.5" y1="89.6094" y2="413.125"/><text fill="#000000" font-family="sans-serif" font-size="14" lengthAdjust="spacing" textLength="88" x="5" y="86.5332">FleetManager</text><ellipse cx="52" cy="15" fill="#FEFECE" filter="url(#fd8b3hx4341mw)" rx="8" ry="8" style="stroke:#A80036;stroke-width:2.0;"/><path d="M52,23 L52,50 M39,31 L65,31 M52,50 L39,65 M52,50 L65,65 " fill="none" filter="url(#fd8b3hx4341mw)" style="stroke:#A80036;stroke-width:2.0;"/><text fill="#000000" font-family="sans-serif" font-size="14" lengthAdjust="spacing" textLength="88" x="5" y="426.6582">FleetManager</text><ellipse cx="52" cy="439.7344" fill="#FEFECE" filter="url(#fd8b3hx4341mw)" rx="8" ry="8" style="stroke:#A80036;stroke-width:2.0;"/><path d="M52,447.7344 L52,474.7344 M39,455.7344 L65,455.7344 M52,474.7344 L39,489.7344 M52,474.7344 L65,489.7344 " fill="none" filter="url(#fd8b3hx4341mw)" style="stroke:#A80036;stroke-width:2.0;"/><rect fill="#FEFECE" filter="url(#fd8b3hx4341mw)" height="31.6094" rx="10" ry="10" style="stroke:#A80036;stroke-width:1.5;" width="73" x="286.5" y="53"/><text fill="#000000" font-family="sans-serif" font-size="14" lengthAdjust="spacing" textLength="59" x="293.5" y="74.5332">FrontEnd</text><rect fill="#FEFECE" filter="url(#fd8b3hx4341mw)" height="31.6094" rx="10" ry="10" style="stroke:#A80036;stroke-width:1.5;" width="73" x="286.5" y="412.125"/><text fill="#000000" font-family="sans-serif" font-size="14" lengthAdjust="spacing" textLength="59" x="293.5" y="433.6582">FrontEnd</text><rect fill="#FEFECE" filter="url(#fd8b3hx4341mw)" height="31.6094" rx="10" ry="10" style="stroke:#A80036;stroke-width:1.5;" width="148" x="373.5" y="53"/><text fill="#000000" font-family="sans-serif" font-size="14" lengthAdjust="spacing" textLength="134" x="380.5" y="74.5332">AddTruckComponent</text><rect fill="#FEFECE" filter="url(#fd8b3hx4341mw)" height="31.6094" rx="10" ry="10" style="stroke:#A80036;stroke-width:1.5;" width="148" x="373.5" y="412.125"/><text fill="#000000" font-family="sans-serif" font-size="14" lengthAdjust="spacing" textLength="134" x="380.5" y="433.6582">AddTruckComponent</text><rect fill="#FEFECE" filter="url(#fd8b3hx4341mw)" height="31.6094" rx="10" ry="10" style="stroke:#A80036;stroke-width:1.5;" width="122" x="535.5" y="53"/><text fill="#000000" font-family="sans-serif" font-size="14" lengthAdjust="spacing" textLength="108" x="542.5" y="74.5332">AddTruckService</text><rect fill="#FEFECE" filter="url(#fd8b3hx4341mw)" height="31.6094" rx="10" ry="10" style="stroke:#A80036;stroke-width:1.5;" width="122" x="535.5" y="412.125"/><text fill="#000000" font-family="sans-serif" font-size="14" lengthAdjust="spacing" textLength="108" x="542.5" y="433.6582">AddTruckService</text><rect fill="#FEFECE" filter="url(#fd8b3hx4341mw)" height="31.6094" rx="10" ry="10" style="stroke:#A80036;stroke-width:1.5;" width="68" x="671.5" y="53"/><text fill="#000000" font-family="sans-serif" font-size="14" lengthAdjust="spacing" textLength="54" x="678.5" y="74.5332">GestLog</text><rect fill="#FEFECE" filter="url(#fd8b3hx4341mw)" height="31.6094" rx="10" ry="10" style="stroke:#A80036;stroke-width:1.5;" width="68" x="671.5" y="412.125"/><text fill="#000000" font-family="sans-serif" font-size="14" lengthAdjust="spacing" textLength="54" x="678.5" y="433.6582">GestLog</text><rect fill="#FFFFFF" filter="url(#fd8b3hx4341mw)" height="30.3516" style="stroke:#A80036;stroke-width:1.0;" width="10" x="47" y="121.9609"/><rect fill="#FFFFFF" filter="url(#fd8b3hx4341mw)" height="212.4609" style="stroke:#A80036;stroke-width:1.0;" width="10" x="47" y="182.6641"/><rect fill="#FFFFFF" filter="url(#fd8b3hx4341mw)" height="273.1641" style="stroke:#A80036;stroke-width:1.0;" width="10" x="320" y="121.9609"/><rect fill="#FFFFFF" filter="url(#fd8b3hx4341mw)" height="151.7578" style="stroke:#A80036;stroke-width:1.0;" width="10" x="444.5" y="213.0156"/><rect fill="#FFFFFF" filter="url(#fd8b3hx4341mw)" height="91.0547" style="stroke:#A80036;stroke-width:1.0;" width="10" x="593.5" y="243.3672"/><rect fill="#FFFFFF" filter="url(#fd8b3hx4341mw)" height="30.3516" style="stroke:#A80036;stroke-width:1.0;" width="10" x="702.5" y="273.7188"/><polygon fill="#A80036" points="308,117.9609,318,121.9609,308,125.9609,312,121.9609" style="stroke:#A80036;stroke-width:1.0;"/><line style="stroke:#A80036;stroke-width:2.0;" x1="57" x2="314" y1="121.9609" y2="121.9609"/><text fill="#000000" font-family="sans-serif" font-size="13" lengthAdjust="spacing" textLength="159" x="64" y="117.1045">quero criar um novo camião</text><polygon fill="#A80036" points="63,148.3125,53,152.3125,63,156.3125,59,152.3125" style="stroke:#A80036;stroke-width:1.0;"/><line style="stroke:#A80036;stroke-width:2.0;stroke-dasharray:2.0,2.0;" x1="57" x2="319" y1="152.3125" y2="152.3125"/><text fill="#000000" font-family="sans-serif" font-size="13" lengthAdjust="spacing" textLength="239" x="69" y="147.4561">pede para preencher os dados do camião</text><polygon fill="#A80036" points="308,178.6641,318,182.6641,308,186.6641,312,182.6641" style="stroke:#A80036;stroke-width:1.0;"/><line style="stroke:#A80036;stroke-width:2.0;" x1="57" x2="314" y1="182.6641" y2="182.6641"/><text fill="#000000" font-family="sans-serif" font-size="13" lengthAdjust="spacing" textLength="174" x="64" y="177.8076">preenche os dados do camião</text><polygon fill="#A80036" points="432.5,209.0156,442.5,213.0156,432.5,217.0156,436.5,213.0156" style="stroke:#A80036;stroke-width:1.0;"/><line style="stroke:#A80036;stroke-width:2.0;" x1="330" x2="438.5" y1="213.0156" y2="213.0156"/><text fill="#000000" font-family="sans-serif" font-size="13" lengthAdjust="spacing" textLength="61" x="337" y="208.1592">addTruck()</text><polygon fill="#A80036" points="581.5,239.3672,591.5,243.3672,581.5,247.3672,585.5,243.3672" style="stroke:#A80036;stroke-width:1.0;"/><line style="stroke:#A80036;stroke-width:2.0;" x1="454.5" x2="587.5" y1="243.3672" y2="243.3672"/><text fill="#000000" font-family="sans-serif" font-size="13" lengthAdjust="spacing" textLength="61" x="461.5" y="238.5107">addTruck()</text><polygon fill="#A80036" points="690.5,269.7188,700.5,273.7188,690.5,277.7188,694.5,273.7188" style="stroke:#A80036;stroke-width:1.0;"/><line style="stroke:#A80036;stroke-width:2.0;" x1="603.5" x2="696.5" y1="273.7188" y2="273.7188"/><text fill="#000000" font-family="sans-serif" font-size="13" lengthAdjust="spacing" textLength="79" x="610.5" y="268.8623">POST /trucks</text><polygon fill="#A80036" points="614.5,300.0703,604.5,304.0703,614.5,308.0703,610.5,304.0703" style="stroke:#A80036;stroke-width:1.0;"/><line style="stroke:#A80036;stroke-width:2.0;stroke-dasharray:2.0,2.0;" x1="608.5" x2="706.5" y1="304.0703" y2="304.0703"/><text fill="#000000" font-family="sans-serif" font-size="13" lengthAdjust="spacing" textLength="70" x="620.5" y="299.2139">201 Created</text><polygon fill="#A80036" points="465.5,330.4219,455.5,334.4219,465.5,338.4219,461.5,334.4219" style="stroke:#A80036;stroke-width:1.0;"/><line style="stroke:#A80036;stroke-width:2.0;stroke-dasharray:2.0,2.0;" x1="459.5" x2="597.5" y1="334.4219" y2="334.4219"/><text fill="#000000" font-family="sans-serif" font-size="13" lengthAdjust="spacing" textLength="70" x="471.5" y="329.5654">201 Created</text><polygon fill="#A80036" points="341,360.7734,331,364.7734,341,368.7734,337,364.7734" style="stroke:#A80036;stroke-width:1.0;"/><line style="stroke:#A80036;stroke-width:2.0;stroke-dasharray:2.0,2.0;" x1="335" x2="448.5" y1="364.7734" y2="364.7734"/><text fill="#000000" font-family="sans-serif" font-size="13" lengthAdjust="spacing" textLength="70" x="347" y="359.917">201 Created</text><polygon fill="#A80036" points="63,391.125,53,395.125,63,399.125,59,395.125" style="stroke:#A80036;stroke-width:1.0;"/><line style="stroke:#A80036;stroke-width:2.0;stroke-dasharray:2.0,2.0;" x1="57" x2="324" y1="395.125" y2="395.125"/><text fill="#000000" font-family="sans-serif" font-size="13" lengthAdjust="spacing" textLength="170" x="69" y="390.2686">confirma a criação do camião</text><!--MD5=[6bbc136814bcb1c853cf4eb29b5f27c4]
@startuml N3_VP

skinparam sequenceArrowThickness 2
skinparam roundcorner 20

actor FleetManager
participant FrontEnd
participant AddTruckComponent
participant AddTruckService
participant GestLog


FleetManager -> FrontEnd : quero criar um novo camião
activate FleetManager
activate FrontEnd
FrontEnd - -> FleetManager : pede para preencher os dados do camião
deactivate FleetManager
FleetManager -> FrontEnd : preenche os dados do camião
activate FleetManager
FrontEnd -> AddTruckComponent : addTruck()
activate AddTruckComponent
AddTruckComponent -> AddTruckService : addTruck()
activate AddTruckService
AddTruckService -> GestLog : POST /trucks
activate GestLog
GestLog - -> AddTruckService : 201 Created
deactivate GestLog
AddTruckService - -> AddTruckComponent : 201 Created
deactivate AddTruckService  
AddTruckComponent - -> FrontEnd : 201 Created
deactivate AddTruckComponent
FrontEnd - -> FleetManager : confirma a criação do camião
deactivate FleetManager
deactivate FrontEnd


@enduml

PlantUML version 1.2022.1(Tue Feb 01 18:19:58 GMT 2022)
(GPL source distribution)
Java Runtime: OpenJDK Runtime Environment
JVM: OpenJDK 64-Bit Server VM
Default Encoding: Cp1252
Language: pt
Country: PT
--></g></svg>