<?xml version="1.0" encoding="UTF-8" standalone="no"?><svg xmlns="http://www.w3.org/2000/svg" xmlns:xlink="http://www.w3.org/1999/xlink" contentScriptType="application/ecmascript" contentStyleType="text/css" height="255px" preserveAspectRatio="none" style="width:329px;height:255px;background:#FFFFFF;" version="1.1" viewBox="0 0 329 255" width="329px" zoomAndPan="magnify"><defs><filter height="300%" id="f1t79g439hv7hp" width="300%" x="-1" y="-1"><feGaussianBlur result="blurOut" stdDeviation="2.0"/><feColorMatrix in="blurOut" result="blurOut2" type="matrix" values="0 0 0 0 0 0 0 0 0 0 0 0 0 0 0 0 0 0 .4 0"/><feOffset dx="4.0" dy="4.0" in="blurOut2" result="blurOut3"/><feBlend in="SourceGraphic" in2="blurOut3" mode="normal"/></filter></defs><g><rect fill="#FFFFFF" filter="url(#f1t79g439hv7hp)" height="30.3516" style="stroke:#A80036;stroke-width:1.0;" width="10" x="43" y="121.9609"/><rect fill="#FFFFFF" filter="url(#f1t79g439hv7hp)" height="30.3516" style="stroke:#A80036;stroke-width:1.0;" width="10" x="282" y="121.9609"/><line style="stroke:#A80036;stroke-width:1.0;stroke-dasharray:5.0,5.0;" x1="48" x2="48" y1="89.6094" y2="170.3125"/><line style="stroke:#A80036;stroke-width:1.0;stroke-dasharray:5.0,5.0;" x1="287" x2="287" y1="89.6094" y2="170.3125"/><text fill="#000000" font-family="sans-serif" font-size="14" lengthAdjust="spacing" textLength="80" x="5" y="86.5332">LogManager</text><ellipse cx="48" cy="15" fill="#FEFECE" filter="url(#f1t79g439hv7hp)" rx="8" ry="8" style="stroke:#A80036;stroke-width:2.0;"/><path d="M48,23 L48,50 M35,31 L61,31 M48,50 L35,65 M48,50 L61,65 " fill="none" filter="url(#f1t79g439hv7hp)" style="stroke:#A80036;stroke-width:2.0;"/><text fill="#000000" font-family="sans-serif" font-size="14" lengthAdjust="spacing" textLength="80" x="5" y="183.8457">LogManager</text><ellipse cx="48" cy="196.9219" fill="#FEFECE" filter="url(#f1t79g439hv7hp)" rx="8" ry="8" style="stroke:#A80036;stroke-width:2.0;"/><path d="M48,204.9219 L48,231.9219 M35,212.9219 L61,212.9219 M48,231.9219 L35,246.9219 M48,231.9219 L61,246.9219 " fill="none" filter="url(#f1t79g439hv7hp)" style="stroke:#A80036;stroke-width:2.0;"/><rect fill="#FEFECE" filter="url(#f1t79g439hv7hp)" height="31.6094" rx="10" ry="10" style="stroke:#A80036;stroke-width:1.5;" width="60" x="255" y="53"/><text fill="#000000" font-family="sans-serif" font-size="14" lengthAdjust="spacing" textLength="46" x="262" y="74.5332">System</text><rect fill="#FEFECE" filter="url(#f1t79g439hv7hp)" height="31.6094" rx="10" ry="10" style="stroke:#A80036;stroke-width:1.5;" width="60" x="255" y="169.3125"/><text fill="#000000" font-family="sans-serif" font-size="14" lengthAdjust="spacing" textLength="46" x="262" y="190.8457">System</text><rect fill="#FFFFFF" filter="url(#f1t79g439hv7hp)" height="30.3516" style="stroke:#A80036;stroke-width:1.0;" width="10" x="43" y="121.9609"/><rect fill="#FFFFFF" filter="url(#f1t79g439hv7hp)" height="30.3516" style="stroke:#A80036;stroke-width:1.0;" width="10" x="282" y="121.9609"/><polygon fill="#A80036" points="270,117.9609,280,121.9609,270,125.9609,274,121.9609" style="stroke:#A80036;stroke-width:1.0;"/><line style="stroke:#A80036;stroke-width:2.0;" x1="53" x2="276" y1="121.9609" y2="121.9609"/><text fill="#000000" font-family="sans-serif" font-size="13" lengthAdjust="spacing" textLength="157" x="60" y="117.1045">wants to list all packagings</text><polygon fill="#A80036" points="59,148.3125,49,152.3125,59,156.3125,55,152.3125" style="stroke:#A80036;stroke-width:1.0;"/><line style="stroke:#A80036;stroke-width:2.0;stroke-dasharray:2.0,2.0;" x1="53" x2="286" y1="152.3125" y2="152.3125"/><text fill="#000000" font-family="sans-serif" font-size="13" lengthAdjust="spacing" textLength="205" x="65" y="147.4561">Shows list or informs about an error</text><!--MD5=[e431755cebc7c88bc5bf790b2ae64f5d]
@startuml N1_VP_alt1

skinparam sequenceArrowThickness 2
skinparam roundcorner 20


actor LogManager
participant System

LogManager -> System : wants to list all packagings
activate LogManager
activate System
System - -> LogManager : Shows list or informs about an error
deactivate LogManager
deactivate System


@enduml

PlantUML version 1.2022.1(Tue Feb 01 18:19:58 GMT 2022)
(GPL source distribution)
Java Runtime: OpenJDK Runtime Environment
JVM: OpenJDK 64-Bit Server VM
Default Encoding: Cp1252
Language: pt
Country: PT
--></g></svg>