<?xml version="1.0" encoding="UTF-8" standalone="no"?><svg xmlns="http://www.w3.org/2000/svg" xmlns:xlink="http://www.w3.org/1999/xlink" contentScriptType="application/ecmascript" contentStyleType="text/css" height="316px" preserveAspectRatio="none" style="width:444px;height:316px;background:#FFFFFF;" version="1.1" viewBox="0 0 444 316" width="444px" zoomAndPan="magnify"><defs><filter height="300%" id="f195xlw8agp3el" width="300%" x="-1" y="-1"><feGaussianBlur result="blurOut" stdDeviation="2.0"/><feColorMatrix in="blurOut" result="blurOut2" type="matrix" values="0 0 0 0 0 0 0 0 0 0 0 0 0 0 0 0 0 0 .4 0"/><feOffset dx="4.0" dy="4.0" in="blurOut2" result="blurOut3"/><feBlend in="SourceGraphic" in2="blurOut3" mode="normal"/></filter></defs><g><rect fill="#FFFFFF" filter="url(#f195xlw8agp3el)" height="30.3516" style="stroke:#A80036;stroke-width:1.0;" width="10" x="43" y="121.9609"/><rect fill="#FFFFFF" filter="url(#f195xlw8agp3el)" height="30.3516" style="stroke:#A80036;stroke-width:1.0;" width="10" x="43" y="182.6641"/><rect fill="#FFFFFF" filter="url(#f195xlw8agp3el)" height="91.0547" style="stroke:#A80036;stroke-width:1.0;" width="10" x="397" y="121.9609"/><line style="stroke:#A80036;stroke-width:1.0;stroke-dasharray:5.0,5.0;" x1="48" x2="48" y1="89.6094" y2="231.0156"/><line style="stroke:#A80036;stroke-width:1.0;stroke-dasharray:5.0,5.0;" x1="402" x2="402" y1="89.6094" y2="231.0156"/><text fill="#000000" font-family="sans-serif" font-size="14" lengthAdjust="spacing" textLength="80" x="5" y="86.5332">LogManager</text><ellipse cx="48" cy="15" fill="#FEFECE" filter="url(#f195xlw8agp3el)" rx="8" ry="8" style="stroke:#A80036;stroke-width:2.0;"/><path d="M48,23 L48,50 M35,31 L61,31 M48,50 L35,65 M48,50 L61,65 " fill="none" filter="url(#f195xlw8agp3el)" style="stroke:#A80036;stroke-width:2.0;"/><text fill="#000000" font-family="sans-serif" font-size="14" lengthAdjust="spacing" textLength="80" x="5" y="244.5488">LogManager</text><ellipse cx="48" cy="257.625" fill="#FEFECE" filter="url(#f195xlw8agp3el)" rx="8" ry="8" style="stroke:#A80036;stroke-width:2.0;"/><path d="M48,265.625 L48,292.625 M35,273.625 L61,273.625 M48,292.625 L35,307.625 M48,292.625 L61,307.625 " fill="none" filter="url(#f195xlw8agp3el)" style="stroke:#A80036;stroke-width:2.0;"/><rect fill="#FEFECE" filter="url(#f195xlw8agp3el)" height="31.6094" rx="10" ry="10" style="stroke:#A80036;stroke-width:1.5;" width="60" x="370" y="53"/><text fill="#000000" font-family="sans-serif" font-size="14" lengthAdjust="spacing" textLength="46" x="377" y="74.5332">System</text><rect fill="#FEFECE" filter="url(#f195xlw8agp3el)" height="31.6094" rx="10" ry="10" style="stroke:#A80036;stroke-width:1.5;" width="60" x="370" y="230.0156"/><text fill="#000000" font-family="sans-serif" font-size="14" lengthAdjust="spacing" textLength="46" x="377" y="251.5488">System</text><rect fill="#FFFFFF" filter="url(#f195xlw8agp3el)" height="30.3516" style="stroke:#A80036;stroke-width:1.0;" width="10" x="43" y="121.9609"/><rect fill="#FFFFFF" filter="url(#f195xlw8agp3el)" height="30.3516" style="stroke:#A80036;stroke-width:1.0;" width="10" x="43" y="182.6641"/><rect fill="#FFFFFF" filter="url(#f195xlw8agp3el)" height="91.0547" style="stroke:#A80036;stroke-width:1.0;" width="10" x="397" y="121.9609"/><polygon fill="#A80036" points="385,117.9609,395,121.9609,385,125.9609,389,121.9609" style="stroke:#A80036;stroke-width:1.0;"/><line style="stroke:#A80036;stroke-width:2.0;" x1="53" x2="391" y1="121.9609" y2="121.9609"/><text fill="#000000" font-family="sans-serif" font-size="13" lengthAdjust="spacing" textLength="313" x="60" y="117.1045">quero listar os empacotamentos por ID de encomenda</text><polygon fill="#A80036" points="59,148.3125,49,152.3125,59,156.3125,55,152.3125" style="stroke:#A80036;stroke-width:1.0;"/><line style="stroke:#A80036;stroke-width:2.0;stroke-dasharray:2.0,2.0;" x1="53" x2="396" y1="152.3125" y2="152.3125"/><text fill="#000000" font-family="sans-serif" font-size="13" lengthAdjust="spacing" textLength="133" x="65" y="147.4561">pede ID de encomenda</text><polygon fill="#A80036" points="385,178.6641,395,182.6641,385,186.6641,389,182.6641" style="stroke:#A80036;stroke-width:1.0;"/><line style="stroke:#A80036;stroke-width:2.0;stroke-dasharray:2.0,2.0;" x1="53" x2="391" y1="182.6641" y2="182.6641"/><text fill="#000000" font-family="sans-serif" font-size="13" lengthAdjust="spacing" textLength="134" x="60" y="177.8076">envia ID de encomenda</text><polygon fill="#A80036" points="59,209.0156,49,213.0156,59,217.0156,55,213.0156" style="stroke:#A80036;stroke-width:1.0;"/><line style="stroke:#A80036;stroke-width:2.0;stroke-dasharray:2.0,2.0;" x1="53" x2="401" y1="213.0156" y2="213.0156"/><text fill="#000000" font-family="sans-serif" font-size="13" lengthAdjust="spacing" textLength="320" x="65" y="208.1592">mostra lista de empacotamentos ou mensagem de erro</text><!--MD5=[6e177fd7f2464924d455c3a2e0a25dee]
@startuml N1_VP_alt3

skinparam sequenceArrowThickness 2
skinparam roundcorner 20


actor LogManager
participant System

LogManager -> System : quero listar os empacotamentos por ID de encomenda
activate LogManager
activate System
System - -> LogManager : pede ID de encomenda
deactivate LogManager
LogManager - -> System : envia ID de encomenda
activate LogManager
System - -> LogManager : mostra lista de empacotamentos ou mensagem de erro
deactivate LogManager
deactivate System


@enduml

PlantUML version 1.2022.1(Tue Feb 01 18:19:58 GMT 2022)
(GPL source distribution)
Java Runtime: OpenJDK Runtime Environment
JVM: OpenJDK 64-Bit Server VM
Default Encoding: Cp1252
Language: pt
Country: PT
--></g></svg>