<?xml version="1.0" encoding="UTF-8" standalone="no"?><svg xmlns="http://www.w3.org/2000/svg" xmlns:xlink="http://www.w3.org/1999/xlink" contentScriptType="application/ecmascript" contentStyleType="text/css" height="438px" preserveAspectRatio="none" style="width:1133px;height:438px;background:#FFFFFF;" version="1.1" viewBox="0 0 1133 438" width="1133px" zoomAndPan="magnify"><defs><filter height="300%" id="fc4p1cfbkmuu0" width="300%" x="-1" y="-1"><feGaussianBlur result="blurOut" stdDeviation="2.0"/><feColorMatrix in="blurOut" result="blurOut2" type="matrix" values="0 0 0 0 0 0 0 0 0 0 0 0 0 0 0 0 0 0 .4 0"/><feOffset dx="4.0" dy="4.0" in="blurOut2" result="blurOut3"/><feBlend in="SourceGraphic" in2="blurOut3" mode="normal"/></filter></defs><g><rect fill="#FFFFFF" filter="url(#fc4p1cfbkmuu0)" height="212.4609" style="stroke:#A80036;stroke-width:1.0;" width="10" x="55" y="121.9609"/><rect fill="#FFFFFF" filter="url(#fc4p1cfbkmuu0)" height="30.3516" style="stroke:#A80036;stroke-width:1.0;" width="10" x="392" y="121.9609"/><rect fill="#FFFFFF" filter="url(#fc4p1cfbkmuu0)" height="30.3516" style="stroke:#A80036;stroke-width:1.0;" width="10" x="392" y="304.0703"/><rect fill="#FFFFFF" filter="url(#fc4p1cfbkmuu0)" height="30.3516" style="stroke:#A80036;stroke-width:1.0;" width="10" x="622" y="152.3125"/><rect fill="#FFFFFF" filter="url(#fc4p1cfbkmuu0)" height="30.3516" style="stroke:#A80036;stroke-width:1.0;" width="10" x="622" y="273.7188"/><rect fill="#FFFFFF" filter="url(#fc4p1cfbkmuu0)" height="30.3516" style="stroke:#A80036;stroke-width:1.0;" width="10" x="852" y="182.6641"/><rect fill="#FFFFFF" filter="url(#fc4p1cfbkmuu0)" height="30.3516" style="stroke:#A80036;stroke-width:1.0;" width="10" x="852" y="243.3672"/><rect fill="#FFFFFF" filter="url(#fc4p1cfbkmuu0)" height="30.3516" style="stroke:#A80036;stroke-width:1.0;" width="10" x="1082" y="213.0156"/><line style="stroke:#A80036;stroke-width:1.0;stroke-dasharray:5.0,5.0;" x1="60" x2="60" y1="89.6094" y2="352.4219"/><line style="stroke:#A80036;stroke-width:1.0;stroke-dasharray:5.0,5.0;" x1="396.5" x2="396.5" y1="89.6094" y2="352.4219"/><line style="stroke:#A80036;stroke-width:1.0;stroke-dasharray:5.0,5.0;" x1="626.5" x2="626.5" y1="89.6094" y2="352.4219"/><line style="stroke:#A80036;stroke-width:1.0;stroke-dasharray:5.0,5.0;" x1="856.5" x2="856.5" y1="89.6094" y2="352.4219"/><line style="stroke:#A80036;stroke-width:1.0;stroke-dasharray:5.0,5.0;" x1="1086.5" x2="1086.5" y1="89.6094" y2="352.4219"/><text fill="#000000" font-family="sans-serif" font-size="14" lengthAdjust="spacing" textLength="104" x="5" y="86.5332">LogisticManager</text><ellipse cx="60" cy="15" fill="#FEFECE" filter="url(#fc4p1cfbkmuu0)" rx="8" ry="8" style="stroke:#A80036;stroke-width:2.0;"/><path d="M60,23 L60,50 M47,31 L73,31 M60,50 L47,65 M60,50 L73,65 " fill="none" filter="url(#fc4p1cfbkmuu0)" style="stroke:#A80036;stroke-width:2.0;"/><text fill="#000000" font-family="sans-serif" font-size="14" lengthAdjust="spacing" textLength="104" x="5" y="365.9551">LogisticManager</text><ellipse cx="60" cy="379.0313" fill="#FEFECE" filter="url(#fc4p1cfbkmuu0)" rx="8" ry="8" style="stroke:#A80036;stroke-width:2.0;"/><path d="M60,387.0313 L60,414.0313 M47,395.0313 L73,395.0313 M60,414.0313 L47,429.0313 M60,414.0313 L73,429.0313 " fill="none" filter="url(#fc4p1cfbkmuu0)" style="stroke:#A80036;stroke-width:2.0;"/><rect fill="#FEFECE" filter="url(#fc4p1cfbkmuu0)" height="31.6094" style="stroke:#A80036;stroke-width:1.5;" width="73" x="358.5" y="53"/><text fill="#000000" font-family="sans-serif" font-size="14" lengthAdjust="spacing" textLength="59" x="365.5" y="74.5332">FrontEnd</text><rect fill="#FEFECE" filter="url(#fc4p1cfbkmuu0)" height="31.6094" style="stroke:#A80036;stroke-width:1.5;" width="73" x="358.5" y="351.4219"/><text fill="#000000" font-family="sans-serif" font-size="14" lengthAdjust="spacing" textLength="59" x="365.5" y="372.9551">FrontEnd</text><rect fill="#FEFECE" filter="url(#fc4p1cfbkmuu0)" height="31.6094" style="stroke:#A80036;stroke-width:1.5;" width="175" x="537.5" y="53"/><text fill="#000000" font-family="sans-serif" font-size="14" lengthAdjust="spacing" textLength="161" x="544.5" y="74.5332">ListPackagingComponent</text><rect fill="#FEFECE" filter="url(#fc4p1cfbkmuu0)" height="31.6094" style="stroke:#A80036;stroke-width:1.5;" width="175" x="537.5" y="351.4219"/><text fill="#000000" font-family="sans-serif" font-size="14" lengthAdjust="spacing" textLength="161" x="544.5" y="372.9551">ListPackagingComponent</text><rect fill="#FEFECE" filter="url(#fc4p1cfbkmuu0)" height="31.6094" style="stroke:#A80036;stroke-width:1.5;" width="149" x="780.5" y="53"/><text fill="#000000" font-family="sans-serif" font-size="14" lengthAdjust="spacing" textLength="135" x="787.5" y="74.5332">ListPackagingService</text><rect fill="#FEFECE" filter="url(#fc4p1cfbkmuu0)" height="31.6094" style="stroke:#A80036;stroke-width:1.5;" width="149" x="780.5" y="351.4219"/><text fill="#000000" font-family="sans-serif" font-size="14" lengthAdjust="spacing" textLength="135" x="787.5" y="372.9551">ListPackagingService</text><rect fill="#FEFECE" filter="url(#fc4p1cfbkmuu0)" height="31.6094" style="stroke:#A80036;stroke-width:1.5;" width="69" x="1050.5" y="53"/><text fill="#000000" font-family="sans-serif" font-size="14" lengthAdjust="spacing" textLength="55" x="1057.5" y="74.5332">GestArm</text><rect fill="#FEFECE" filter="url(#fc4p1cfbkmuu0)" height="31.6094" style="stroke:#A80036;stroke-width:1.5;" width="69" x="1050.5" y="351.4219"/><text fill="#000000" font-family="sans-serif" font-size="14" lengthAdjust="spacing" textLength="55" x="1057.5" y="372.9551">GestArm</text><rect fill="#FFFFFF" filter="url(#fc4p1cfbkmuu0)" height="212.4609" style="stroke:#A80036;stroke-width:1.0;" width="10" x="55" y="121.9609"/><rect fill="#FFFFFF" filter="url(#fc4p1cfbkmuu0)" height="30.3516" style="stroke:#A80036;stroke-width:1.0;" width="10" x="392" y="121.9609"/><rect fill="#FFFFFF" filter="url(#fc4p1cfbkmuu0)" height="30.3516" style="stroke:#A80036;stroke-width:1.0;" width="10" x="392" y="304.0703"/><rect fill="#FFFFFF" filter="url(#fc4p1cfbkmuu0)" height="30.3516" style="stroke:#A80036;stroke-width:1.0;" width="10" x="622" y="152.3125"/><rect fill="#FFFFFF" filter="url(#fc4p1cfbkmuu0)" height="30.3516" style="stroke:#A80036;stroke-width:1.0;" width="10" x="622" y="273.7188"/><rect fill="#FFFFFF" filter="url(#fc4p1cfbkmuu0)" height="30.3516" style="stroke:#A80036;stroke-width:1.0;" width="10" x="852" y="182.6641"/><rect fill="#FFFFFF" filter="url(#fc4p1cfbkmuu0)" height="30.3516" style="stroke:#A80036;stroke-width:1.0;" width="10" x="852" y="243.3672"/><rect fill="#FFFFFF" filter="url(#fc4p1cfbkmuu0)" height="30.3516" style="stroke:#A80036;stroke-width:1.0;" width="10" x="1082" y="213.0156"/><polygon fill="#A80036" points="380,117.9609,390,121.9609,380,125.9609,384,121.9609" style="stroke:#A80036;stroke-width:1.0;"/><line style="stroke:#A80036;stroke-width:1.0;" x1="65" x2="386" y1="121.9609" y2="121.9609"/><text fill="#000000" font-family="sans-serif" font-size="13" lengthAdjust="spacing" textLength="313" x="72" y="117.1045">quero listar os empacotamentos por ID de encomenda</text><polygon fill="#A80036" points="610,148.3125,620,152.3125,610,156.3125,614,152.3125" style="stroke:#A80036;stroke-width:1.0;"/><line style="stroke:#A80036;stroke-width:1.0;" x1="397" x2="616" y1="152.3125" y2="152.3125"/><text fill="#000000" font-family="sans-serif" font-size="13" lengthAdjust="spacing" textLength="201" x="404" y="147.4561">listPackagingByOrderRef(orderRef)</text><polygon fill="#A80036" points="840,178.6641,850,182.6641,840,186.6641,844,182.6641" style="stroke:#A80036;stroke-width:1.0;"/><line style="stroke:#A80036;stroke-width:1.0;" x1="627" x2="846" y1="182.6641" y2="182.6641"/><text fill="#000000" font-family="sans-serif" font-size="13" lengthAdjust="spacing" textLength="201" x="634" y="177.8076">listPackagingByOrderRef(orderRef)</text><polygon fill="#A80036" points="1070,209.0156,1080,213.0156,1070,217.0156,1074,213.0156" style="stroke:#A80036;stroke-width:1.0;"/><line style="stroke:#A80036;stroke-width:1.0;" x1="857" x2="1076" y1="213.0156" y2="213.0156"/><text fill="#000000" font-family="sans-serif" font-size="13" lengthAdjust="spacing" textLength="201" x="864" y="208.1592">listPackagingByOrderRef(orderRef)</text><polygon fill="#A80036" points="873,239.3672,863,243.3672,873,247.3672,869,243.3672" style="stroke:#A80036;stroke-width:1.0;"/><line style="stroke:#A80036;stroke-width:1.0;" x1="867" x2="1086" y1="243.3672" y2="243.3672"/><text fill="#000000" font-family="sans-serif" font-size="13" lengthAdjust="spacing" textLength="126" x="879" y="238.5107">packagingByOrderRef</text><polygon fill="#A80036" points="643,269.7188,633,273.7188,643,277.7188,639,273.7188" style="stroke:#A80036;stroke-width:1.0;"/><line style="stroke:#A80036;stroke-width:1.0;" x1="637" x2="856" y1="273.7188" y2="273.7188"/><text fill="#000000" font-family="sans-serif" font-size="13" lengthAdjust="spacing" textLength="126" x="649" y="268.8623">packagingByOrderRef</text><polygon fill="#A80036" points="413,300.0703,403,304.0703,413,308.0703,409,304.0703" style="stroke:#A80036;stroke-width:1.0;"/><line style="stroke:#A80036;stroke-width:1.0;" x1="407" x2="626" y1="304.0703" y2="304.0703"/><text fill="#000000" font-family="sans-serif" font-size="13" lengthAdjust="spacing" textLength="126" x="419" y="299.2139">packagingByOrderRef</text><polygon fill="#A80036" points="71,330.4219,61,334.4219,71,338.4219,67,334.4219" style="stroke:#A80036;stroke-width:1.0;"/><line style="stroke:#A80036;stroke-width:1.0;" x1="65" x2="396" y1="334.4219" y2="334.4219"/><text fill="#000000" font-family="sans-serif" font-size="13" lengthAdjust="spacing" textLength="126" x="77" y="329.5654">packagingByOrderRef</text><!--MD5=[0978f1f4a438881f11449c777980dd5e]
@startuml N3_VP_alt3

actor LogisticManager
participant FrontEnd
participant ListPackagingComponent
participant ListPackagingService
participant GestArm

LogisticManager -> FrontEnd : quero listar os empacotamentos por ID de encomenda
activate FrontEnd
activate LogisticManager
FrontEnd -> ListPackagingComponent : listPackagingByOrderRef(orderRef)
deactivate FrontEnd
activate ListPackagingComponent
ListPackagingComponent -> ListPackagingService : listPackagingByOrderRef(orderRef)
deactivate ListPackagingComponent
activate ListPackagingService
ListPackagingService -> GestArm : listPackagingByOrderRef(orderRef)
deactivate ListPackagingService
activate GestArm
GestArm -> ListPackagingService : packagingByOrderRef
deactivate GestArm
activate ListPackagingService
ListPackagingService -> ListPackagingComponent : packagingByOrderRef
deactivate ListPackagingService
activate ListPackagingComponent
ListPackagingComponent -> FrontEnd : packagingByOrderRef
deactivate ListPackagingComponent
activate FrontEnd
FrontEnd -> LogisticManager : packagingByOrderRef
deactivate FrontEnd
deactivate LogisticManager


@enduml

PlantUML version 1.2022.1(Tue Feb 01 18:19:58 GMT 2022)
(GPL source distribution)
Java Runtime: OpenJDK Runtime Environment
JVM: OpenJDK 64-Bit Server VM
Default Encoding: Cp1252
Language: pt
Country: PT
--></g></svg>