<?xml version="1.0" encoding="UTF-8" standalone="no"?><svg xmlns="http://www.w3.org/2000/svg" xmlns:xlink="http://www.w3.org/1999/xlink" contentScriptType="application/ecmascript" contentStyleType="text/css" height="438px" preserveAspectRatio="none" style="width:842px;height:438px;background:#FFFFFF;" version="1.1" viewBox="0 0 842 438" width="842px" zoomAndPan="magnify"><defs><filter height="300%" id="frbub3cjb0xrl" width="300%" x="-1" y="-1"><feGaussianBlur result="blurOut" stdDeviation="2.0"/><feColorMatrix in="blurOut" result="blurOut2" type="matrix" values="0 0 0 0 0 0 0 0 0 0 0 0 0 0 0 0 0 0 .4 0"/><feOffset dx="4.0" dy="4.0" in="blurOut2" result="blurOut3"/><feBlend in="SourceGraphic" in2="blurOut3" mode="normal"/></filter></defs><g><rect fill="#FFFFFF" filter="url(#frbub3cjb0xrl)" height="212.4609" style="stroke:#A80036;stroke-width:1.0;" width="10" x="55" y="121.9609"/><rect fill="#FFFFFF" filter="url(#frbub3cjb0xrl)" height="30.3516" style="stroke:#A80036;stroke-width:1.0;" width="10" x="308" y="121.9609"/><rect fill="#FFFFFF" filter="url(#frbub3cjb0xrl)" height="30.3516" style="stroke:#A80036;stroke-width:1.0;" width="10" x="308" y="304.0703"/><rect fill="#FFFFFF" filter="url(#frbub3cjb0xrl)" height="151.7578" style="stroke:#A80036;stroke-width:1.0;" width="10" x="493" y="152.3125"/><rect fill="#FFFFFF" filter="url(#frbub3cjb0xrl)" height="60.7031" style="stroke:#A80036;stroke-width:1.0;" width="10" x="669" y="213.0156"/><rect fill="#FFFFFF" filter="url(#frbub3cjb0xrl)" height="30.3516" style="stroke:#A80036;stroke-width:1.0;" width="10" x="791.5" y="213.0156"/><line style="stroke:#A80036;stroke-width:1.0;stroke-dasharray:5.0,5.0;" x1="60" x2="60" y1="89.6094" y2="352.4219"/><line style="stroke:#A80036;stroke-width:1.0;stroke-dasharray:5.0,5.0;" x1="312.5" x2="312.5" y1="89.6094" y2="352.4219"/><line style="stroke:#A80036;stroke-width:1.0;stroke-dasharray:5.0,5.0;" x1="497.5" x2="497.5" y1="89.6094" y2="352.4219"/><line style="stroke:#A80036;stroke-width:1.0;stroke-dasharray:5.0,5.0;" x1="673.5" x2="673.5" y1="89.6094" y2="352.4219"/><line style="stroke:#A80036;stroke-width:1.0;stroke-dasharray:5.0,5.0;" x1="796.5" x2="796.5" y1="89.6094" y2="352.4219"/><text fill="#000000" font-family="sans-serif" font-size="14" lengthAdjust="spacing" textLength="104" x="5" y="86.5332">LogisticManager</text><ellipse cx="60" cy="15" fill="#FEFECE" filter="url(#frbub3cjb0xrl)" rx="8" ry="8" style="stroke:#A80036;stroke-width:2.0;"/><path d="M60,23 L60,50 M47,31 L73,31 M60,50 L47,65 M60,50 L73,65 " fill="none" filter="url(#frbub3cjb0xrl)" style="stroke:#A80036;stroke-width:2.0;"/><text fill="#000000" font-family="sans-serif" font-size="14" lengthAdjust="spacing" textLength="104" x="5" y="365.9551">LogisticManager</text><ellipse cx="60" cy="379.0313" fill="#FEFECE" filter="url(#frbub3cjb0xrl)" rx="8" ry="8" style="stroke:#A80036;stroke-width:2.0;"/><path d="M60,387.0313 L60,414.0313 M47,395.0313 L73,395.0313 M60,414.0313 L47,429.0313 M60,414.0313 L73,429.0313 " fill="none" filter="url(#frbub3cjb0xrl)" style="stroke:#A80036;stroke-width:2.0;"/><rect fill="#FEFECE" filter="url(#frbub3cjb0xrl)" height="31.6094" style="stroke:#A80036;stroke-width:1.5;" width="73" x="274.5" y="53"/><text fill="#000000" font-family="sans-serif" font-size="14" lengthAdjust="spacing" textLength="59" x="281.5" y="74.5332">FrontEnd</text><rect fill="#FEFECE" filter="url(#frbub3cjb0xrl)" height="31.6094" style="stroke:#A80036;stroke-width:1.5;" width="73" x="274.5" y="351.4219"/><text fill="#000000" font-family="sans-serif" font-size="14" lengthAdjust="spacing" textLength="59" x="281.5" y="372.9551">FrontEnd</text><rect fill="#FEFECE" filter="url(#frbub3cjb0xrl)" height="31.6094" style="stroke:#A80036;stroke-width:1.5;" width="175" x="408.5" y="53"/><text fill="#000000" font-family="sans-serif" font-size="14" lengthAdjust="spacing" textLength="161" x="415.5" y="74.5332">ListPackagingComponent</text><rect fill="#FEFECE" filter="url(#frbub3cjb0xrl)" height="31.6094" style="stroke:#A80036;stroke-width:1.5;" width="175" x="408.5" y="351.4219"/><text fill="#000000" font-family="sans-serif" font-size="14" lengthAdjust="spacing" textLength="161" x="415.5" y="372.9551">ListPackagingComponent</text><rect fill="#FEFECE" filter="url(#frbub3cjb0xrl)" height="31.6094" style="stroke:#A80036;stroke-width:1.5;" width="149" x="597.5" y="53"/><text fill="#000000" font-family="sans-serif" font-size="14" lengthAdjust="spacing" textLength="135" x="604.5" y="74.5332">ListPackagingService</text><rect fill="#FEFECE" filter="url(#frbub3cjb0xrl)" height="31.6094" style="stroke:#A80036;stroke-width:1.5;" width="149" x="597.5" y="351.4219"/><text fill="#000000" font-family="sans-serif" font-size="14" lengthAdjust="spacing" textLength="135" x="604.5" y="372.9551">ListPackagingService</text><rect fill="#FEFECE" filter="url(#frbub3cjb0xrl)" height="31.6094" style="stroke:#A80036;stroke-width:1.5;" width="68" x="760.5" y="53"/><text fill="#000000" font-family="sans-serif" font-size="14" lengthAdjust="spacing" textLength="54" x="767.5" y="74.5332">GestLog</text><rect fill="#FEFECE" filter="url(#frbub3cjb0xrl)" height="31.6094" style="stroke:#A80036;stroke-width:1.5;" width="68" x="760.5" y="351.4219"/><text fill="#000000" font-family="sans-serif" font-size="14" lengthAdjust="spacing" textLength="54" x="767.5" y="372.9551">GestLog</text><rect fill="#FFFFFF" filter="url(#frbub3cjb0xrl)" height="212.4609" style="stroke:#A80036;stroke-width:1.0;" width="10" x="55" y="121.9609"/><rect fill="#FFFFFF" filter="url(#frbub3cjb0xrl)" height="30.3516" style="stroke:#A80036;stroke-width:1.0;" width="10" x="308" y="121.9609"/><rect fill="#FFFFFF" filter="url(#frbub3cjb0xrl)" height="30.3516" style="stroke:#A80036;stroke-width:1.0;" width="10" x="308" y="304.0703"/><rect fill="#FFFFFF" filter="url(#frbub3cjb0xrl)" height="151.7578" style="stroke:#A80036;stroke-width:1.0;" width="10" x="493" y="152.3125"/><rect fill="#FFFFFF" filter="url(#frbub3cjb0xrl)" height="60.7031" style="stroke:#A80036;stroke-width:1.0;" width="10" x="669" y="213.0156"/><rect fill="#FFFFFF" filter="url(#frbub3cjb0xrl)" height="30.3516" style="stroke:#A80036;stroke-width:1.0;" width="10" x="791.5" y="213.0156"/><polygon fill="#A80036" points="296,117.9609,306,121.9609,296,125.9609,300,121.9609" style="stroke:#A80036;stroke-width:1.0;"/><line style="stroke:#A80036;stroke-width:1.0;" x1="65" x2="302" y1="121.9609" y2="121.9609"/><text fill="#000000" font-family="sans-serif" font-size="13" lengthAdjust="spacing" textLength="229" x="72" y="117.1045">I want to see a list of all the packagings</text><polygon fill="#A80036" points="481,148.3125,491,152.3125,481,156.3125,485,152.3125" style="stroke:#A80036;stroke-width:1.0;"/><line style="stroke:#A80036;stroke-width:1.0;" x1="313" x2="487" y1="152.3125" y2="152.3125"/><text fill="#000000" font-family="sans-serif" font-size="13" lengthAdjust="spacing" textLength="156" x="320" y="147.4561">ListPackagingComponent()</text><polygon fill="#A80036" points="662,178.6641,672,182.6641,662,186.6641,666,182.6641" style="stroke:#A80036;stroke-width:1.0;"/><line style="stroke:#A80036;stroke-width:1.0;" x1="503" x2="668" y1="182.6641" y2="182.6641"/><text fill="#000000" font-family="sans-serif" font-size="13" lengthAdjust="spacing" textLength="87" x="510" y="177.8076">getPackaging()</text><polygon fill="#A80036" points="779.5,209.0156,789.5,213.0156,779.5,217.0156,783.5,213.0156" style="stroke:#A80036;stroke-width:1.0;"/><line style="stroke:#A80036;stroke-width:1.0;" x1="679" x2="785.5" y1="213.0156" y2="213.0156"/><text fill="#000000" font-family="sans-serif" font-size="13" lengthAdjust="spacing" textLength="87" x="686" y="208.1592">getPackaging()</text><polygon fill="#A80036" points="690,239.3672,680,243.3672,690,247.3672,686,243.3672" style="stroke:#A80036;stroke-width:1.0;"/><line style="stroke:#A80036;stroke-width:1.0;" x1="684" x2="795.5" y1="243.3672" y2="243.3672"/><text fill="#000000" font-family="sans-serif" font-size="13" lengthAdjust="spacing" textLength="80" x="696" y="238.5107">packagingList</text><polygon fill="#A80036" points="514,269.7188,504,273.7188,514,277.7188,510,273.7188" style="stroke:#A80036;stroke-width:1.0;"/><line style="stroke:#A80036;stroke-width:1.0;" x1="508" x2="673" y1="273.7188" y2="273.7188"/><text fill="#000000" font-family="sans-serif" font-size="13" lengthAdjust="spacing" textLength="80" x="520" y="268.8623">packagingList</text><polygon fill="#A80036" points="329,300.0703,319,304.0703,329,308.0703,325,304.0703" style="stroke:#A80036;stroke-width:1.0;"/><line style="stroke:#A80036;stroke-width:1.0;" x1="323" x2="497" y1="304.0703" y2="304.0703"/><text fill="#000000" font-family="sans-serif" font-size="13" lengthAdjust="spacing" textLength="80" x="335" y="299.2139">packagingList</text><polygon fill="#A80036" points="71,330.4219,61,334.4219,71,338.4219,67,334.4219" style="stroke:#A80036;stroke-width:1.0;"/><line style="stroke:#A80036;stroke-width:1.0;" x1="65" x2="312" y1="334.4219" y2="334.4219"/><text fill="#000000" font-family="sans-serif" font-size="13" lengthAdjust="spacing" textLength="80" x="77" y="329.5654">packagingList</text><!--MD5=[09aca1b6ed7236fb36435f46160f855c]
@startuml N3_VP

actor LogisticManager
participant FrontEnd
participant ListPackagingComponent
participant ListPackagingService
participant GestLog

LogisticManager -> FrontEnd : I want to see a list of all the packagings
activate LogisticManager
activate FrontEnd
FrontEnd -> ListPackagingComponent : ListPackagingComponent()
deactivate FrontEnd
activate ListPackagingComponent
ListPackagingComponent -> ListPackagingService : getPackaging()
deactivate ListPackagingService
ListPackagingService -> GestLog : getPackaging()
activate ListPackagingService
activate GestLog
GestLog -> ListPackagingService : packagingList
deactivate GestLog
ListPackagingService -> ListPackagingComponent : packagingList
deactivate ListPackagingService
ListPackagingComponent -> FrontEnd : packagingList
deactivate ListPackagingComponent
activate FrontEnd
FrontEnd -> LogisticManager : packagingList
deactivate FrontEnd
deactivate LogisticManager


@enduml

PlantUML version 1.2022.1(Tue Feb 01 18:19:58 GMT 2022)
(GPL source distribution)
Java Runtime: OpenJDK Runtime Environment
JVM: OpenJDK 64-Bit Server VM
Default Encoding: Cp1252
Language: pt
Country: PT
--></g></svg>