<?xml version="1.0" encoding="UTF-8" standalone="no"?><svg xmlns="http://www.w3.org/2000/svg" xmlns:xlink="http://www.w3.org/1999/xlink" contentScriptType="application/ecmascript" contentStyleType="text/css" height="438px" preserveAspectRatio="none" style="width:838px;height:438px;background:#FFFFFF;" version="1.1" viewBox="0 0 838 438" width="838px" zoomAndPan="magnify"><defs><filter height="300%" id="f1o1nwg03ff3pz" width="300%" x="-1" y="-1"><feGaussianBlur result="blurOut" stdDeviation="2.0"/><feColorMatrix in="blurOut" result="blurOut2" type="matrix" values="0 0 0 0 0 0 0 0 0 0 0 0 0 0 0 0 0 0 .4 0"/><feOffset dx="4.0" dy="4.0" in="blurOut2" result="blurOut3"/><feBlend in="SourceGraphic" in2="blurOut3" mode="normal"/></filter></defs><g><rect fill="#FFFFFF" filter="url(#f1o1nwg03ff3pz)" height="212.4609" style="stroke:#A80036;stroke-width:1.0;" width="10" x="55" y="121.9609"/><rect fill="#FFFFFF" filter="url(#f1o1nwg03ff3pz)" height="30.3516" style="stroke:#A80036;stroke-width:1.0;" width="10" x="304" y="121.9609"/><rect fill="#FFFFFF" filter="url(#f1o1nwg03ff3pz)" height="30.3516" style="stroke:#A80036;stroke-width:1.0;" width="10" x="304" y="304.0703"/><rect fill="#FFFFFF" filter="url(#f1o1nwg03ff3pz)" height="151.7578" style="stroke:#A80036;stroke-width:1.0;" width="10" x="489" y="152.3125"/><rect fill="#FFFFFF" filter="url(#f1o1nwg03ff3pz)" height="60.7031" style="stroke:#A80036;stroke-width:1.0;" width="10" x="665" y="213.0156"/><rect fill="#FFFFFF" filter="url(#f1o1nwg03ff3pz)" height="30.3516" style="stroke:#A80036;stroke-width:1.0;" width="10" x="787.5" y="213.0156"/><line style="stroke:#A80036;stroke-width:1.0;stroke-dasharray:5.0,5.0;" x1="60" x2="60" y1="89.6094" y2="352.4219"/><line style="stroke:#A80036;stroke-width:1.0;stroke-dasharray:5.0,5.0;" x1="308.5" x2="308.5" y1="89.6094" y2="352.4219"/><line style="stroke:#A80036;stroke-width:1.0;stroke-dasharray:5.0,5.0;" x1="493.5" x2="493.5" y1="89.6094" y2="352.4219"/><line style="stroke:#A80036;stroke-width:1.0;stroke-dasharray:5.0,5.0;" x1="669.5" x2="669.5" y1="89.6094" y2="352.4219"/><line style="stroke:#A80036;stroke-width:1.0;stroke-dasharray:5.0,5.0;" x1="792.5" x2="792.5" y1="89.6094" y2="352.4219"/><text fill="#000000" font-family="sans-serif" font-size="14" lengthAdjust="spacing" textLength="104" x="5" y="86.5332">LogisticManager</text><ellipse cx="60" cy="15" fill="#FEFECE" filter="url(#f1o1nwg03ff3pz)" rx="8" ry="8" style="stroke:#A80036;stroke-width:2.0;"/><path d="M60,23 L60,50 M47,31 L73,31 M60,50 L47,65 M60,50 L73,65 " fill="none" filter="url(#f1o1nwg03ff3pz)" style="stroke:#A80036;stroke-width:2.0;"/><text fill="#000000" font-family="sans-serif" font-size="14" lengthAdjust="spacing" textLength="104" x="5" y="365.9551">LogisticManager</text><ellipse cx="60" cy="379.0313" fill="#FEFECE" filter="url(#f1o1nwg03ff3pz)" rx="8" ry="8" style="stroke:#A80036;stroke-width:2.0;"/><path d="M60,387.0313 L60,414.0313 M47,395.0313 L73,395.0313 M60,414.0313 L47,429.0313 M60,414.0313 L73,429.0313 " fill="none" filter="url(#f1o1nwg03ff3pz)" style="stroke:#A80036;stroke-width:2.0;"/><rect fill="#FEFECE" filter="url(#f1o1nwg03ff3pz)" height="31.6094" style="stroke:#A80036;stroke-width:1.5;" width="73" x="270.5" y="53"/><text fill="#000000" font-family="sans-serif" font-size="14" lengthAdjust="spacing" textLength="59" x="277.5" y="74.5332">FrontEnd</text><rect fill="#FEFECE" filter="url(#f1o1nwg03ff3pz)" height="31.6094" style="stroke:#A80036;stroke-width:1.5;" width="73" x="270.5" y="351.4219"/><text fill="#000000" font-family="sans-serif" font-size="14" lengthAdjust="spacing" textLength="59" x="277.5" y="372.9551">FrontEnd</text><rect fill="#FEFECE" filter="url(#f1o1nwg03ff3pz)" height="31.6094" style="stroke:#A80036;stroke-width:1.5;" width="175" x="404.5" y="53"/><text fill="#000000" font-family="sans-serif" font-size="14" lengthAdjust="spacing" textLength="161" x="411.5" y="74.5332">ListPackagingComponent</text><rect fill="#FEFECE" filter="url(#f1o1nwg03ff3pz)" height="31.6094" style="stroke:#A80036;stroke-width:1.5;" width="175" x="404.5" y="351.4219"/><text fill="#000000" font-family="sans-serif" font-size="14" lengthAdjust="spacing" textLength="161" x="411.5" y="372.9551">ListPackagingComponent</text><rect fill="#FEFECE" filter="url(#f1o1nwg03ff3pz)" height="31.6094" style="stroke:#A80036;stroke-width:1.5;" width="149" x="593.5" y="53"/><text fill="#000000" font-family="sans-serif" font-size="14" lengthAdjust="spacing" textLength="135" x="600.5" y="74.5332">ListPackagingService</text><rect fill="#FEFECE" filter="url(#f1o1nwg03ff3pz)" height="31.6094" style="stroke:#A80036;stroke-width:1.5;" width="149" x="593.5" y="351.4219"/><text fill="#000000" font-family="sans-serif" font-size="14" lengthAdjust="spacing" textLength="135" x="600.5" y="372.9551">ListPackagingService</text><rect fill="#FEFECE" filter="url(#f1o1nwg03ff3pz)" height="31.6094" style="stroke:#A80036;stroke-width:1.5;" width="68" x="756.5" y="53"/><text fill="#000000" font-family="sans-serif" font-size="14" lengthAdjust="spacing" textLength="54" x="763.5" y="74.5332">GestLog</text><rect fill="#FEFECE" filter="url(#f1o1nwg03ff3pz)" height="31.6094" style="stroke:#A80036;stroke-width:1.5;" width="68" x="756.5" y="351.4219"/><text fill="#000000" font-family="sans-serif" font-size="14" lengthAdjust="spacing" textLength="54" x="763.5" y="372.9551">GestLog</text><rect fill="#FFFFFF" filter="url(#f1o1nwg03ff3pz)" height="212.4609" style="stroke:#A80036;stroke-width:1.0;" width="10" x="55" y="121.9609"/><rect fill="#FFFFFF" filter="url(#f1o1nwg03ff3pz)" height="30.3516" style="stroke:#A80036;stroke-width:1.0;" width="10" x="304" y="121.9609"/><rect fill="#FFFFFF" filter="url(#f1o1nwg03ff3pz)" height="30.3516" style="stroke:#A80036;stroke-width:1.0;" width="10" x="304" y="304.0703"/><rect fill="#FFFFFF" filter="url(#f1o1nwg03ff3pz)" height="151.7578" style="stroke:#A80036;stroke-width:1.0;" width="10" x="489" y="152.3125"/><rect fill="#FFFFFF" filter="url(#f1o1nwg03ff3pz)" height="60.7031" style="stroke:#A80036;stroke-width:1.0;" width="10" x="665" y="213.0156"/><rect fill="#FFFFFF" filter="url(#f1o1nwg03ff3pz)" height="30.3516" style="stroke:#A80036;stroke-width:1.0;" width="10" x="787.5" y="213.0156"/><polygon fill="#A80036" points="292,117.9609,302,121.9609,292,125.9609,296,121.9609" style="stroke:#A80036;stroke-width:1.0;"/><line style="stroke:#A80036;stroke-width:1.0;" x1="65" x2="298" y1="121.9609" y2="121.9609"/><text fill="#000000" font-family="sans-serif" font-size="13" lengthAdjust="spacing" textLength="225" x="72" y="117.1045">Quero listar todos os empacotamentos</text><polygon fill="#A80036" points="477,148.3125,487,152.3125,477,156.3125,481,152.3125" style="stroke:#A80036;stroke-width:1.0;"/><line style="stroke:#A80036;stroke-width:1.0;" x1="309" x2="483" y1="152.3125" y2="152.3125"/><text fill="#000000" font-family="sans-serif" font-size="13" lengthAdjust="spacing" textLength="156" x="316" y="147.4561">ListPackagingComponent()</text><polygon fill="#A80036" points="658,178.6641,668,182.6641,658,186.6641,662,182.6641" style="stroke:#A80036;stroke-width:1.0;"/><line style="stroke:#A80036;stroke-width:1.0;" x1="499" x2="664" y1="182.6641" y2="182.6641"/><text fill="#000000" font-family="sans-serif" font-size="13" lengthAdjust="spacing" textLength="87" x="506" y="177.8076">getPackaging()</text><polygon fill="#A80036" points="775.5,209.0156,785.5,213.0156,775.5,217.0156,779.5,213.0156" style="stroke:#A80036;stroke-width:1.0;"/><line style="stroke:#A80036;stroke-width:1.0;" x1="675" x2="781.5" y1="213.0156" y2="213.0156"/><text fill="#000000" font-family="sans-serif" font-size="13" lengthAdjust="spacing" textLength="93" x="682" y="208.1592">GET /packaging</text><polygon fill="#A80036" points="686,239.3672,676,243.3672,686,247.3672,682,243.3672" style="stroke:#A80036;stroke-width:1.0;"/><line style="stroke:#A80036;stroke-width:1.0;stroke-dasharray:2.0,2.0;" x1="680" x2="791.5" y1="243.3672" y2="243.3672"/><text fill="#000000" font-family="sans-serif" font-size="13" lengthAdjust="spacing" textLength="80" x="692" y="238.5107">packagingList</text><polygon fill="#A80036" points="510,269.7188,500,273.7188,510,277.7188,506,273.7188" style="stroke:#A80036;stroke-width:1.0;"/><line style="stroke:#A80036;stroke-width:1.0;stroke-dasharray:2.0,2.0;" x1="504" x2="669" y1="273.7188" y2="273.7188"/><text fill="#000000" font-family="sans-serif" font-size="13" lengthAdjust="spacing" textLength="80" x="516" y="268.8623">packagingList</text><polygon fill="#A80036" points="325,300.0703,315,304.0703,325,308.0703,321,304.0703" style="stroke:#A80036;stroke-width:1.0;"/><line style="stroke:#A80036;stroke-width:1.0;stroke-dasharray:2.0,2.0;" x1="319" x2="493" y1="304.0703" y2="304.0703"/><text fill="#000000" font-family="sans-serif" font-size="13" lengthAdjust="spacing" textLength="80" x="331" y="299.2139">packagingList</text><polygon fill="#A80036" points="71,330.4219,61,334.4219,71,338.4219,67,334.4219" style="stroke:#A80036;stroke-width:1.0;"/><line style="stroke:#A80036;stroke-width:1.0;stroke-dasharray:2.0,2.0;" x1="65" x2="308" y1="334.4219" y2="334.4219"/><text fill="#000000" font-family="sans-serif" font-size="13" lengthAdjust="spacing" textLength="80" x="77" y="329.5654">packagingList</text><!--MD5=[94ccc06d27e022c8258e36fb192cf627]
@startuml N3_VP_alt1

actor LogisticManager
participant FrontEnd
participant ListPackagingComponent
participant ListPackagingService
participant GestLog

LogisticManager -> FrontEnd : Quero listar todos os empacotamentos
activate LogisticManager
activate FrontEnd
FrontEnd -> ListPackagingComponent : ListPackagingComponent()
deactivate FrontEnd
activate ListPackagingComponent
ListPackagingComponent -> ListPackagingService : getPackaging()
deactivate ListPackagingService
ListPackagingService -> GestLog : GET /packaging
activate ListPackagingService
activate GestLog
GestLog - -> ListPackagingService : packagingList
deactivate GestLog
ListPackagingService - -> ListPackagingComponent : packagingList
deactivate ListPackagingService
ListPackagingComponent - -> FrontEnd : packagingList
deactivate ListPackagingComponent
activate FrontEnd
FrontEnd - -> LogisticManager : packagingList
deactivate FrontEnd
deactivate LogisticManager


@enduml

PlantUML version 1.2022.1(Tue Feb 01 18:19:58 GMT 2022)
(GPL source distribution)
Java Runtime: OpenJDK Runtime Environment
JVM: OpenJDK 64-Bit Server VM
Default Encoding: Cp1252
Language: pt
Country: PT
--></g></svg>