<?xml version="1.0" encoding="UTF-8" standalone="no"?><svg xmlns="http://www.w3.org/2000/svg" xmlns:xlink="http://www.w3.org/1999/xlink" contentScriptType="application/ecmascript" contentStyleType="text/css" height="438px" preserveAspectRatio="none" style="width:1093px;height:438px;background:#FFFFFF;" version="1.1" viewBox="0 0 1093 438" width="1093px" zoomAndPan="magnify"><defs><filter height="300%" id="f1tjg2o7yu553x" width="300%" x="-1" y="-1"><feGaussianBlur result="blurOut" stdDeviation="2.0"/><feColorMatrix in="blurOut" result="blurOut2" type="matrix" values="0 0 0 0 0 0 0 0 0 0 0 0 0 0 0 0 0 0 .4 0"/><feOffset dx="4.0" dy="4.0" in="blurOut2" result="blurOut3"/><feBlend in="SourceGraphic" in2="blurOut3" mode="normal"/></filter></defs><g><rect fill="#FFFFFF" filter="url(#f1tjg2o7yu553x)" height="212.4609" style="stroke:#A80036;stroke-width:1.0;" width="10" x="55" y="121.9609"/><rect fill="#FFFFFF" filter="url(#f1tjg2o7yu553x)" height="30.3516" style="stroke:#A80036;stroke-width:1.0;" width="10" x="367" y="121.9609"/><rect fill="#FFFFFF" filter="url(#f1tjg2o7yu553x)" height="30.3516" style="stroke:#A80036;stroke-width:1.0;" width="10" x="367" y="304.0703"/><rect fill="#FFFFFF" filter="url(#f1tjg2o7yu553x)" height="30.3516" style="stroke:#A80036;stroke-width:1.0;" width="10" x="597" y="152.3125"/><rect fill="#FFFFFF" filter="url(#f1tjg2o7yu553x)" height="30.3516" style="stroke:#A80036;stroke-width:1.0;" width="10" x="597" y="273.7188"/><rect fill="#FFFFFF" filter="url(#f1tjg2o7yu553x)" height="30.3516" style="stroke:#A80036;stroke-width:1.0;" width="10" x="827" y="182.6641"/><rect fill="#FFFFFF" filter="url(#f1tjg2o7yu553x)" height="30.3516" style="stroke:#A80036;stroke-width:1.0;" width="10" x="827" y="243.3672"/><rect fill="#FFFFFF" filter="url(#f1tjg2o7yu553x)" height="30.3516" style="stroke:#A80036;stroke-width:1.0;" width="10" x="1042" y="213.0156"/><line style="stroke:#A80036;stroke-width:1.0;stroke-dasharray:5.0,5.0;" x1="60" x2="60" y1="89.6094" y2="352.4219"/><line style="stroke:#A80036;stroke-width:1.0;stroke-dasharray:5.0,5.0;" x1="371.5" x2="371.5" y1="89.6094" y2="352.4219"/><line style="stroke:#A80036;stroke-width:1.0;stroke-dasharray:5.0,5.0;" x1="601.5" x2="601.5" y1="89.6094" y2="352.4219"/><line style="stroke:#A80036;stroke-width:1.0;stroke-dasharray:5.0,5.0;" x1="831.5" x2="831.5" y1="89.6094" y2="352.4219"/><line style="stroke:#A80036;stroke-width:1.0;stroke-dasharray:5.0,5.0;" x1="1047" x2="1047" y1="89.6094" y2="352.4219"/><text fill="#000000" font-family="sans-serif" font-size="14" lengthAdjust="spacing" textLength="104" x="5" y="86.5332">LogisticManager</text><ellipse cx="60" cy="15" fill="#FEFECE" filter="url(#f1tjg2o7yu553x)" rx="8" ry="8" style="stroke:#A80036;stroke-width:2.0;"/><path d="M60,23 L60,50 M47,31 L73,31 M60,50 L47,65 M60,50 L73,65 " fill="none" filter="url(#f1tjg2o7yu553x)" style="stroke:#A80036;stroke-width:2.0;"/><text fill="#000000" font-family="sans-serif" font-size="14" lengthAdjust="spacing" textLength="104" x="5" y="365.9551">LogisticManager</text><ellipse cx="60" cy="379.0313" fill="#FEFECE" filter="url(#f1tjg2o7yu553x)" rx="8" ry="8" style="stroke:#A80036;stroke-width:2.0;"/><path d="M60,387.0313 L60,414.0313 M47,395.0313 L73,395.0313 M60,414.0313 L47,429.0313 M60,414.0313 L73,429.0313 " fill="none" filter="url(#f1tjg2o7yu553x)" style="stroke:#A80036;stroke-width:2.0;"/><rect fill="#FEFECE" filter="url(#f1tjg2o7yu553x)" height="31.6094" style="stroke:#A80036;stroke-width:1.5;" width="73" x="333.5" y="53"/><text fill="#000000" font-family="sans-serif" font-size="14" lengthAdjust="spacing" textLength="59" x="340.5" y="74.5332">FrontEnd</text><rect fill="#FEFECE" filter="url(#f1tjg2o7yu553x)" height="31.6094" style="stroke:#A80036;stroke-width:1.5;" width="73" x="333.5" y="351.4219"/><text fill="#000000" font-family="sans-serif" font-size="14" lengthAdjust="spacing" textLength="59" x="340.5" y="372.9551">FrontEnd</text><rect fill="#FEFECE" filter="url(#f1tjg2o7yu553x)" height="31.6094" style="stroke:#A80036;stroke-width:1.5;" width="175" x="512.5" y="53"/><text fill="#000000" font-family="sans-serif" font-size="14" lengthAdjust="spacing" textLength="161" x="519.5" y="74.5332">ListPackagingComponent</text><rect fill="#FEFECE" filter="url(#f1tjg2o7yu553x)" height="31.6094" style="stroke:#A80036;stroke-width:1.5;" width="175" x="512.5" y="351.4219"/><text fill="#000000" font-family="sans-serif" font-size="14" lengthAdjust="spacing" textLength="161" x="519.5" y="372.9551">ListPackagingComponent</text><rect fill="#FEFECE" filter="url(#f1tjg2o7yu553x)" height="31.6094" style="stroke:#A80036;stroke-width:1.5;" width="149" x="755.5" y="53"/><text fill="#000000" font-family="sans-serif" font-size="14" lengthAdjust="spacing" textLength="135" x="762.5" y="74.5332">ListPackagingService</text><rect fill="#FEFECE" filter="url(#f1tjg2o7yu553x)" height="31.6094" style="stroke:#A80036;stroke-width:1.5;" width="149" x="755.5" y="351.4219"/><text fill="#000000" font-family="sans-serif" font-size="14" lengthAdjust="spacing" textLength="135" x="762.5" y="372.9551">ListPackagingService</text><rect fill="#FEFECE" filter="url(#f1tjg2o7yu553x)" height="31.6094" style="stroke:#A80036;stroke-width:1.5;" width="68" x="1011" y="53"/><text fill="#000000" font-family="sans-serif" font-size="14" lengthAdjust="spacing" textLength="54" x="1018" y="74.5332">GestLog</text><rect fill="#FEFECE" filter="url(#f1tjg2o7yu553x)" height="31.6094" style="stroke:#A80036;stroke-width:1.5;" width="68" x="1011" y="351.4219"/><text fill="#000000" font-family="sans-serif" font-size="14" lengthAdjust="spacing" textLength="54" x="1018" y="372.9551">GestLog</text><rect fill="#FFFFFF" filter="url(#f1tjg2o7yu553x)" height="212.4609" style="stroke:#A80036;stroke-width:1.0;" width="10" x="55" y="121.9609"/><rect fill="#FFFFFF" filter="url(#f1tjg2o7yu553x)" height="30.3516" style="stroke:#A80036;stroke-width:1.0;" width="10" x="367" y="121.9609"/><rect fill="#FFFFFF" filter="url(#f1tjg2o7yu553x)" height="30.3516" style="stroke:#A80036;stroke-width:1.0;" width="10" x="367" y="304.0703"/><rect fill="#FFFFFF" filter="url(#f1tjg2o7yu553x)" height="30.3516" style="stroke:#A80036;stroke-width:1.0;" width="10" x="597" y="152.3125"/><rect fill="#FFFFFF" filter="url(#f1tjg2o7yu553x)" height="30.3516" style="stroke:#A80036;stroke-width:1.0;" width="10" x="597" y="273.7188"/><rect fill="#FFFFFF" filter="url(#f1tjg2o7yu553x)" height="30.3516" style="stroke:#A80036;stroke-width:1.0;" width="10" x="827" y="182.6641"/><rect fill="#FFFFFF" filter="url(#f1tjg2o7yu553x)" height="30.3516" style="stroke:#A80036;stroke-width:1.0;" width="10" x="827" y="243.3672"/><rect fill="#FFFFFF" filter="url(#f1tjg2o7yu553x)" height="30.3516" style="stroke:#A80036;stroke-width:1.0;" width="10" x="1042" y="213.0156"/><polygon fill="#A80036" points="355,117.9609,365,121.9609,355,125.9609,359,121.9609" style="stroke:#A80036;stroke-width:1.0;"/><line style="stroke:#A80036;stroke-width:1.0;" x1="65" x2="361" y1="121.9609" y2="121.9609"/><text fill="#000000" font-family="sans-serif" font-size="13" lengthAdjust="spacing" textLength="288" x="72" y="117.1045">quero listar os empacotamentos por ID de camião</text><polygon fill="#A80036" points="585,148.3125,595,152.3125,585,156.3125,589,152.3125" style="stroke:#A80036;stroke-width:1.0;"/><line style="stroke:#A80036;stroke-width:1.0;" x1="372" x2="591" y1="152.3125" y2="152.3125"/><text fill="#000000" font-family="sans-serif" font-size="13" lengthAdjust="spacing" textLength="201" x="379" y="147.4561">listPackagingByTruckRef(truckRef)</text><polygon fill="#A80036" points="815,178.6641,825,182.6641,815,186.6641,819,182.6641" style="stroke:#A80036;stroke-width:1.0;"/><line style="stroke:#A80036;stroke-width:1.0;" x1="602" x2="821" y1="182.6641" y2="182.6641"/><text fill="#000000" font-family="sans-serif" font-size="13" lengthAdjust="spacing" textLength="201" x="609" y="177.8076">listPackagingByTruckRef(truckRef)</text><polygon fill="#A80036" points="1030,209.0156,1040,213.0156,1030,217.0156,1034,213.0156" style="stroke:#A80036;stroke-width:1.0;"/><line style="stroke:#A80036;stroke-width:1.0;" x1="832" x2="1036" y1="213.0156" y2="213.0156"/><text fill="#000000" font-family="sans-serif" font-size="13" lengthAdjust="spacing" textLength="186" x="839" y="208.1592">GET /packaging/truck/{truckRef}</text><polygon fill="#A80036" points="848,239.3672,838,243.3672,848,247.3672,844,243.3672" style="stroke:#A80036;stroke-width:1.0;"/><line style="stroke:#A80036;stroke-width:1.0;stroke-dasharray:2.0,2.0;" x1="842" x2="1046" y1="243.3672" y2="243.3672"/><text fill="#000000" font-family="sans-serif" font-size="13" lengthAdjust="spacing" textLength="126" x="854" y="238.5107">packagingByTruckRef</text><polygon fill="#A80036" points="618,269.7188,608,273.7188,618,277.7188,614,273.7188" style="stroke:#A80036;stroke-width:1.0;"/><line style="stroke:#A80036;stroke-width:1.0;stroke-dasharray:2.0,2.0;" x1="612" x2="831" y1="273.7188" y2="273.7188"/><text fill="#000000" font-family="sans-serif" font-size="13" lengthAdjust="spacing" textLength="126" x="624" y="268.8623">packagingByTruckRef</text><polygon fill="#A80036" points="388,300.0703,378,304.0703,388,308.0703,384,304.0703" style="stroke:#A80036;stroke-width:1.0;"/><line style="stroke:#A80036;stroke-width:1.0;stroke-dasharray:2.0,2.0;" x1="382" x2="601" y1="304.0703" y2="304.0703"/><text fill="#000000" font-family="sans-serif" font-size="13" lengthAdjust="spacing" textLength="126" x="394" y="299.2139">packagingByTruckRef</text><polygon fill="#A80036" points="71,330.4219,61,334.4219,71,338.4219,67,334.4219" style="stroke:#A80036;stroke-width:1.0;"/><line style="stroke:#A80036;stroke-width:1.0;stroke-dasharray:2.0,2.0;" x1="65" x2="371" y1="334.4219" y2="334.4219"/><text fill="#000000" font-family="sans-serif" font-size="13" lengthAdjust="spacing" textLength="126" x="77" y="329.5654">packagingByTruckRef</text><!--MD5=[3eda07f6cc889663510e3608350f0e61]
@startuml N3_VP_alt2

actor LogisticManager
participant FrontEnd
participant ListPackagingComponent
participant ListPackagingService
participant GestLog

LogisticManager -> FrontEnd : quero listar os empacotamentos por ID de camião
activate FrontEnd
activate LogisticManager
FrontEnd -> ListPackagingComponent : listPackagingByTruckRef(truckRef)
deactivate FrontEnd
activate ListPackagingComponent
ListPackagingComponent -> ListPackagingService : listPackagingByTruckRef(truckRef)
deactivate ListPackagingComponent
activate ListPackagingService
ListPackagingService -> GestLog : GET /packaging/truck/{truckRef}
deactivate ListPackagingService
activate GestLog
GestLog - -> ListPackagingService : packagingByTruckRef
deactivate GestLog
activate ListPackagingService
ListPackagingService - -> ListPackagingComponent : packagingByTruckRef
deactivate ListPackagingService
activate ListPackagingComponent
ListPackagingComponent - -> FrontEnd : packagingByTruckRef
deactivate ListPackagingComponent
activate FrontEnd
FrontEnd - -> LogisticManager : packagingByTruckRef
deactivate FrontEnd
deactivate LogisticManager


@enduml

PlantUML version 1.2022.1(Tue Feb 01 18:19:58 GMT 2022)
(GPL source distribution)
Java Runtime: OpenJDK Runtime Environment
JVM: OpenJDK 64-Bit Server VM
Default Encoding: Cp1252
Language: pt
Country: PT
--></g></svg>