<?xml version="1.0" encoding="UTF-8" standalone="no"?><svg xmlns="http://www.w3.org/2000/svg" xmlns:xlink="http://www.w3.org/1999/xlink" contentStyleType="text/css" height="276px" preserveAspectRatio="none" style="width:367px;height:276px;background:#FFFFFF;" version="1.1" viewBox="0 0 367 276" width="367px" zoomAndPan="magnify"><defs/><g><rect fill="#FFFFFF" height="100.0547" style="stroke:#181818;stroke-width:1.0;" width="10" x="149.5" y="130.6641"/><rect fill="#FFFFFF" height="30.3516" style="stroke:#181818;stroke-width:1.0;" width="10" x="321.5" y="69.9609"/><rect fill="#FFFFFF" height="30.3516" style="stroke:#181818;stroke-width:1.0;" width="10" x="321.5" y="161.0156"/><line style="stroke:#181818;stroke-width:0.5;stroke-dasharray:5.0,5.0;" x1="41" x2="41" y1="37.6094" y2="239.7188"/><line style="stroke:#181818;stroke-width:0.5;stroke-dasharray:5.0,5.0;" x1="154.5" x2="154.5" y1="37.6094" y2="239.7188"/><line style="stroke:#181818;stroke-width:0.5;stroke-dasharray:5.0,5.0;" x1="326" x2="326" y1="37.6094" y2="239.7188"/><rect fill="#E2E2F0" height="31.6094" rx="2.5" ry="2.5" style="stroke:#181818;stroke-width:0.5;" width="73" x="5" y="5"/><text fill="#000000" font-family="sans-serif" font-size="14" lengthAdjust="spacing" textLength="59" x="12" y="26.5332">FrontEnd</text><rect fill="#E2E2F0" height="31.6094" rx="2.5" ry="2.5" style="stroke:#181818;stroke-width:0.5;" width="73" x="5" y="238.7188"/><text fill="#000000" font-family="sans-serif" font-size="14" lengthAdjust="spacing" textLength="59" x="12" y="260.252">FrontEnd</text><rect fill="#E2E2F0" height="31.6094" rx="2.5" ry="2.5" style="stroke:#181818;stroke-width:0.5;" width="68" x="120.5" y="5"/><text fill="#000000" font-family="sans-serif" font-size="14" lengthAdjust="spacing" textLength="54" x="127.5" y="26.5332">GestLog</text><rect fill="#E2E2F0" height="31.6094" rx="2.5" ry="2.5" style="stroke:#181818;stroke-width:0.5;" width="68" x="120.5" y="238.7188"/><text fill="#000000" font-family="sans-serif" font-size="14" lengthAdjust="spacing" textLength="54" x="127.5" y="260.252">GestLog</text><rect fill="#E2E2F0" height="31.6094" rx="2.5" ry="2.5" style="stroke:#181818;stroke-width:0.5;" width="69" x="292" y="5"/><text fill="#000000" font-family="sans-serif" font-size="14" lengthAdjust="spacing" textLength="55" x="299" y="26.5332">GestArm</text><rect fill="#E2E2F0" height="31.6094" rx="2.5" ry="2.5" style="stroke:#181818;stroke-width:0.5;" width="69" x="292" y="238.7188"/><text fill="#000000" font-family="sans-serif" font-size="14" lengthAdjust="spacing" textLength="55" x="299" y="260.252">GestArm</text><rect fill="#FFFFFF" height="100.0547" style="stroke:#181818;stroke-width:1.0;" width="10" x="149.5" y="130.6641"/><rect fill="#FFFFFF" height="30.3516" style="stroke:#181818;stroke-width:1.0;" width="10" x="321.5" y="69.9609"/><rect fill="#FFFFFF" height="30.3516" style="stroke:#181818;stroke-width:1.0;" width="10" x="321.5" y="161.0156"/><polygon fill="#181818" points="309.5,65.9609,319.5,69.9609,309.5,73.9609,313.5,69.9609" style="stroke:#181818;stroke-width:1.0;"/><line style="stroke:#181818;stroke-width:1.0;" x1="41.5" x2="315.5" y1="69.9609" y2="69.9609"/><text fill="#000000" font-family="sans-serif" font-size="13" lengthAdjust="spacing" textLength="121" x="48.5" y="65.1045">GET /api/Warehouse</text><polygon fill="#181818" points="52.5,96.3125,42.5,100.3125,52.5,104.3125,48.5,100.3125" style="stroke:#181818;stroke-width:1.0;"/><line style="stroke:#181818;stroke-width:1.0;stroke-dasharray:2.0,2.0;" x1="46.5" x2="325.5" y1="100.3125" y2="100.3125"/><text fill="#000000" font-family="sans-serif" font-size="13" lengthAdjust="spacing" textLength="90" x="58.5" y="95.4561">all Warehouses</text><polygon fill="#181818" points="137.5,126.6641,147.5,130.6641,137.5,134.6641,141.5,130.6641" style="stroke:#181818;stroke-width:1.0;"/><line style="stroke:#181818;stroke-width:1.0;" x1="41.5" x2="143.5" y1="130.6641" y2="130.6641"/><text fill="#000000" font-family="sans-serif" font-size="13" lengthAdjust="spacing" textLength="89" x="48.5" y="125.8076">POST /api/path</text><polygon fill="#181818" points="309.5,157.0156,319.5,161.0156,309.5,165.0156,313.5,161.0156" style="stroke:#181818;stroke-width:1.0;"/><line style="stroke:#181818;stroke-width:1.0;" x1="159.5" x2="315.5" y1="161.0156" y2="161.0156"/><text fill="#000000" font-family="sans-serif" font-size="13" lengthAdjust="spacing" textLength="143" x="166.5" y="156.1592">GET /api/Warehouse/{id}</text><polygon fill="#181818" points="170.5,187.3672,160.5,191.3672,170.5,195.3672,166.5,191.3672" style="stroke:#181818;stroke-width:1.0;"/><line style="stroke:#181818;stroke-width:1.0;stroke-dasharray:2.0,2.0;" x1="164.5" x2="325.5" y1="191.3672" y2="191.3672"/><text fill="#000000" font-family="sans-serif" font-size="13" lengthAdjust="spacing" textLength="66" x="176.5" y="186.5107">Warehouse</text><polygon fill="#181818" points="52.5,217.7188,42.5,221.7188,52.5,225.7188,48.5,221.7188" style="stroke:#181818;stroke-width:1.0;"/><line style="stroke:#181818;stroke-width:1.0;stroke-dasharray:2.0,2.0;" x1="46.5" x2="148.5" y1="221.7188" y2="221.7188"/><text fill="#000000" font-family="sans-serif" font-size="13" lengthAdjust="spacing" textLength="27" x="58.5" y="216.8623">Path</text><!--MD5=[b018ab316fb80e3573ece8982faeb702]
@startuml

participant FrontEnd
participant GestLog
participant GestArm

FrontEnd -> GestArm : GET /api/Warehouse
activate GestArm
GestArm - -> FrontEnd : all Warehouses
deactivate GestArm

FrontEnd -> GestLog : POST /api/path
activate GestLog
GestLog -> GestArm: GET /api/Warehouse/{id}
activate GestArm
GestArm - -> GestLog : Warehouse
deactivate GestArm
GestLog - -> FrontEnd : Path

@enduml

PlantUML version 1.2022.7(Mon Aug 22 18:01:30 BST 2022)
(GPL source distribution)
Java Runtime: OpenJDK Runtime Environment
JVM: OpenJDK 64-Bit Server VM
Default Encoding: Cp1252
Language: pt
Country: PT
--></g></svg>