<?xml version="1.0" encoding="UTF-8" standalone="no"?><svg xmlns="http://www.w3.org/2000/svg" xmlns:xlink="http://www.w3.org/1999/xlink" contentStyleType="text/css" height="329px" preserveAspectRatio="none" style="width:884px;height:329px;background:#FFFFFF;" version="1.1" viewBox="0 0 884 329" width="884px" zoomAndPan="magnify"><defs/><g><!--MD5=[9681dc6e01e10c6b4fe06895ae94f592]
cluster UI--><g id="cluster_UI"><path d="M8.5,6 L23.5,6 A3.75,3.75 0 0 1 26,8.5 L33,29.6094 L874.5,29.6094 A2.5,2.5 0 0 1 877,32.1094 L877,319.5 A2.5,2.5 0 0 1 874.5,322 L8.5,322 A2.5,2.5 0 0 1 6,319.5 L6,8.5 A2.5,2.5 0 0 1 8.5,6 " fill="none" style="stroke:#000000;stroke-width:1.5;"/><line style="stroke:#000000;stroke-width:1.5;" x1="6" x2="33" y1="29.6094" y2="29.6094"/><text fill="#000000" font-family="sans-serif" font-size="14" font-weight="bold" lengthAdjust="spacing" textLength="14" x="10" y="22.5332">UI</text></g><!--MD5=[4d10202311ac6703410a47793c8f1186]
entity App Module--><g id="elem_App Module"><rect fill="#F1F1F1" height="47.6094" rx="2.5" ry="2.5" style="stroke:#181818;stroke-width:0.5;" width="115" x="426.5" y="42"/><rect fill="#F1F1F1" height="10" style="stroke:#181818;stroke-width:0.5;" width="15" x="521.5" y="47"/><rect fill="#F1F1F1" height="2" style="stroke:#181818;stroke-width:0.5;" width="4" x="519.5" y="49"/><rect fill="#F1F1F1" height="2" style="stroke:#181818;stroke-width:0.5;" width="4" x="519.5" y="53"/><text fill="#000000" font-family="sans-serif" font-size="14" lengthAdjust="spacing" textLength="75" x="441.5" y="76.5332">App Module</text></g><!--MD5=[386e912ade19248d7b3929fb80a6af48]
entity Auth Module--><g id="elem_Auth Module"><rect fill="#F1F1F1" height="47.6094" rx="2.5" ry="2.5" style="stroke:#181818;stroke-width:0.5;" width="119" x="424.5" y="150"/><rect fill="#F1F1F1" height="10" style="stroke:#181818;stroke-width:0.5;" width="15" x="523.5" y="155"/><rect fill="#F1F1F1" height="2" style="stroke:#181818;stroke-width:0.5;" width="4" x="521.5" y="157"/><rect fill="#F1F1F1" height="2" style="stroke:#181818;stroke-width:0.5;" width="4" x="521.5" y="161"/><text fill="#000000" font-family="sans-serif" font-size="14" lengthAdjust="spacing" textLength="79" x="439.5" y="184.5332">Auth Module</text></g><!--MD5=[f2efa848f315ea9b4a4915d67a1ef2e6]
entity Warehouse Manager Module--><g id="elem_Warehouse Manager Module"><rect fill="#F1F1F1" height="47.6094" rx="2.5" ry="2.5" style="stroke:#181818;stroke-width:0.5;" width="223" x="22.5" y="258"/><rect fill="#F1F1F1" height="10" style="stroke:#181818;stroke-width:0.5;" width="15" x="225.5" y="263"/><rect fill="#F1F1F1" height="2" style="stroke:#181818;stroke-width:0.5;" width="4" x="223.5" y="265"/><rect fill="#F1F1F1" height="2" style="stroke:#181818;stroke-width:0.5;" width="4" x="223.5" y="269"/><text fill="#000000" font-family="sans-serif" font-size="14" lengthAdjust="spacing" textLength="183" x="37.5" y="292.5332">Warehouse Manager Module</text></g><!--MD5=[cd9d9421b1b0a14436bb9e9d526affa1]
entity Fleet Manager Module--><g id="elem_Fleet Manager Module"><rect fill="#F1F1F1" height="47.6094" rx="2.5" ry="2.5" style="stroke:#181818;stroke-width:0.5;" width="182" x="281" y="258"/><rect fill="#F1F1F1" height="10" style="stroke:#181818;stroke-width:0.5;" width="15" x="443" y="263"/><rect fill="#F1F1F1" height="2" style="stroke:#181818;stroke-width:0.5;" width="4" x="441" y="265"/><rect fill="#F1F1F1" height="2" style="stroke:#181818;stroke-width:0.5;" width="4" x="441" y="269"/><text fill="#000000" font-family="sans-serif" font-size="14" lengthAdjust="spacing" textLength="142" x="296" y="292.5332">Fleet Manager Module</text></g><!--MD5=[ed9cf344d3e729fbdc5f0607409b125c]
entity Logistic Manager Module--><g id="elem_Logistic Manager Module"><rect fill="#F1F1F1" height="47.6094" rx="2.5" ry="2.5" style="stroke:#181818;stroke-width:0.5;" width="198" x="498" y="258"/><rect fill="#F1F1F1" height="10" style="stroke:#181818;stroke-width:0.5;" width="15" x="676" y="263"/><rect fill="#F1F1F1" height="2" style="stroke:#181818;stroke-width:0.5;" width="4" x="674" y="265"/><rect fill="#F1F1F1" height="2" style="stroke:#181818;stroke-width:0.5;" width="4" x="674" y="269"/><text fill="#000000" font-family="sans-serif" font-size="14" lengthAdjust="spacing" textLength="158" x="513" y="292.5332">Logistic Manager Module</text></g><!--MD5=[97e5484b11ba1c7f51335af676687224]
entity Admin Module--><g id="elem_Admin Module"><rect fill="#F1F1F1" height="47.6094" rx="2.5" ry="2.5" style="stroke:#181818;stroke-width:0.5;" width="129" x="731.5" y="258"/><rect fill="#F1F1F1" height="10" style="stroke:#181818;stroke-width:0.5;" width="15" x="840.5" y="263"/><rect fill="#F1F1F1" height="2" style="stroke:#181818;stroke-width:0.5;" width="4" x="838.5" y="265"/><rect fill="#F1F1F1" height="2" style="stroke:#181818;stroke-width:0.5;" width="4" x="838.5" y="269"/><text fill="#000000" font-family="sans-serif" font-size="14" lengthAdjust="spacing" textLength="89" x="746.5" y="292.5332">Admin Module</text></g><!--MD5=[2b50ae9e8c310fc86291022aedeeca68]
link App Module to Auth Module--><g id="link_App Module_Auth Module"><path d="M484,90 C484,107.66 484,131.94 484,149.68 " fill="none" id="App Module-Auth Module" style="stroke:#181818;stroke-width:1.0;"/></g><!--MD5=[954acc35c120de5e6d7a8d809068e398]
link Auth Module to Warehouse Manager Module--><g id="link_Auth Module_Warehouse Manager Module"><path d="M424.23,193.1 C365.07,211.02 274.29,238.51 210.03,257.97 " fill="none" id="Auth Module-Warehouse Manager Module" style="stroke:#181818;stroke-width:1.0;"/></g><!--MD5=[5ab0aab31387de2f2b9177dfae514d00]
link Auth Module to Fleet Manager Module--><g id="link_Auth Module_Fleet Manager Module"><path d="M459.7,198 C441.04,215.66 415.38,239.94 396.64,257.68 " fill="none" id="Auth Module-Fleet Manager Module" style="stroke:#181818;stroke-width:1.0;"/></g><!--MD5=[2eecaf9623dfa57bf5649660cf2bfa0d]
link Auth Module to Logistic Manager Module--><g id="link_Auth Module_Logistic Manager Module"><path d="M508.52,198 C527.34,215.66 553.23,239.94 572.14,257.68 " fill="none" id="Auth Module-Logistic Manager Module" style="stroke:#181818;stroke-width:1.0;"/></g><!--MD5=[79fcc46e3d27c2293892282edbb85a3f]
link Auth Module to Admin Module--><g id="link_Auth Module_Admin Module"><path d="M543.79,195.31 C597.49,213.56 676.15,240.28 731.31,259.02 " fill="none" id="Auth Module-Admin Module" style="stroke:#181818;stroke-width:1.0;"/></g><!--MD5=[0652166dec1b1ee40e6eaf069c8a0cd5]
@startuml Arquitetura de modelos
package "UI" {
  [App Module]
  [Auth Module]
  [Warehouse Manager Module]
  [Fleet Manager Module]
  [Logistic Manager Module]
  [Admin Module]



}
  [App Module] - - [Auth Module]
  [Auth Module] - - [Warehouse Manager Module]
  [Auth Module] - - [Fleet Manager Module]
  [Auth Module] - - [Logistic Manager Module]
  [Auth Module] - - [Admin Module]
@enduml

PlantUML version 1.2022.7(Mon Aug 22 18:01:30 BST 2022)
(GPL source distribution)
Java Runtime: OpenJDK Runtime Environment
JVM: OpenJDK 64-Bit Server VM
Default Encoding: Cp1252
Language: pt
Country: PT
--></g></svg>