{
  "accessors": [
    {
      "bufferView": 2,
      "componentType": 5126,
      "count": 811,
      "max": [
        1643.5960693359375,
        2248.0,
        1260.0015869140625
      ],
      "min": [
        -1543.185791015625,
        -2148.25,
        720.0010375976563
      ],
      "type": "VEC3"
    },
    {
      "bufferView": 2,
      "byteOffset": 9732,
      "componentType": 5126,
      "count": 811,
      "max": [
        1.0,
        1.0,
        1.0
      ],
      "min": [
        -1.0,
        -1.0,
        -1.0
      ],
      "type": "VEC3"
    },
    {
      "bufferView": 1,
      "componentType": 5126,
      "count": 811,
      "max": [
        1.9990234375,
        3.0
      ],
      "min": [
        0.0,
        1.0
      ],
      "type": "VEC2"
    },
    {
      "bufferView": 1,
      "byteOffset": 6488,
      "componentType": 5126,
      "count": 811,
      "max": [
        0.7099609375,
        0.9919357299804688
      ],
      "min": [
        0.00806427001953125,
        0.0078125
      ],
      "type": "VEC2"
    },
    {
      "bufferView": 1,
      "byteOffset": 12976,
      "componentType": 5126,
      "count": 811,
      "max": [
        0.7099609375,
        0.9919357299804688
      ],
      "min": [
        0.00806427001953125,
        0.0078125
      ],
      "type": "VEC2"
    },
    {
      "bufferView": 1,
      "byteOffset": 19464,
      "componentType": 5126,
      "count": 811,
      "max": [
        0.99169921875,
        0.9919357299804688
      ],
      "min": [
        0.00806427001953125,
        0.09326171875
      ],
      "type": "VEC2"
    },
    {
      "bufferView": 0,
      "componentType": 5125,
      "count": 1206,
      "type": "SCALAR"
    },
    {
      "bufferView": 2,
      "byteOffset": 19464,
      "componentType": 5126,
      "count": 144,
      "max": [
        1623.15771484375,
        2187.0,
        751.0169067382813
      ],
      "min": [
        -1544.84228515625,
        -2143.25,
        -31.01434326171875
      ],
      "type": "VEC3"
    },
    {
      "bufferView": 2,
      "byteOffset": 21192,
      "componentType": 5126,
      "count": 144,
      "max": [
        1.0,
        1.0,
        1.0
      ],
      "min": [
        -1.0,
        -1.0,
        -1.0
      ],
      "type": "VEC3"
    },
    {
      "bufferView": 1,
      "byteOffset": 25952,
      "componentType": 5126,
      "count": 144,
      "max": [
        1.9990234375,
        3.0
      ],
      "min": [
        0.0,
        1.0
      ],
      "type": "VEC2"
    },
    {
      "bufferView": 1,
      "byteOffset": 27104,
      "componentType": 5126,
      "count": 144,
      "max": [
        0.7099609375,
        0.9919357299804688
      ],
      "min": [
        0.00806427001953125,
        0.0078125
      ],
      "type": "VEC2"
    },
    {
      "bufferView": 1,
      "byteOffset": 28256,
      "componentType": 5126,
      "count": 144,
      "max": [
        0.7099609375,
        0.9919357299804688
      ],
      "min": [
        0.00806427001953125,
        0.0078125
      ],
      "type": "VEC2"
    },
    {
      "bufferView": 1,
      "byteOffset": 29408,
      "componentType": 5126,
      "count": 144,
      "max": [
        0.99169921875,
        0.9919357299804688
      ],
      "min": [
        0.00806427001953125,
        0.21728515625
      ],
      "type": "VEC2"
    },
    {
      "bufferView": 0,
      "byteOffset": 4824,
      "componentType": 5125,
      "count": 216,
      "type": "SCALAR"
    },
    {
      "bufferView": 2,
      "byteOffset": 22920,
      "componentType": 5126,
      "count": 24,
      "max": [
        -66.85406494140625,
        -2120.625,
        751.0169067382813
      ],
      "min": [
        -1542.83056640625,
        -2140.625,
        -31.01434326171875
      ],
      "type": "VEC3"
    },
    {
      "bufferView": 2,
      "byteOffset": 23208,
      "componentType": 5126,
      "count": 24,
      "max": [
        1.0,
        1.0,
        1.0
      ],
      "min": [
        -1.0,
        -1.0,
        -1.0
      ],
      "type": "VEC3"
    },
    {
      "bufferView": 1,
      "byteOffset": 30560,
      "componentType": 5126,
      "count": 24,
      "max": [
        1.9990234375,
        3.0
      ],
      "min": [
        0.0,
        1.0
      ],
      "type": "VEC2"
    },
    {
      "bufferView": 1,
      "byteOffset": 30752,
      "componentType": 5126,
      "count": 24,
      "max": [
        0.7099609375,
        0.9919357299804688
      ],
      "min": [
        0.00806427001953125,
        0.0078125
      ],
      "type": "VEC2"
    },
    {
      "bufferView": 1,
      "byteOffset": 30944,
      "componentType": 5126,
      "count": 24,
      "max": [
        0.7099609375,
        0.9919357299804688
      ],
      "min": [
        0.00806427001953125,
        0.0078125
      ],
      "type": "VEC2"
    },
    {
      "bufferView": 1,
      "byteOffset": 31136,
      "componentType": 5126,
      "count": 24,
      "max": [
        0.97705078125,
        0.943572998046875
      ],
      "min": [
        0.00806427001953125,
        0.2236328125
      ],
      "type": "VEC2"
    },
    {
      "bufferView": 0,
      "byteOffset": 5688,
      "componentType": 5125,
      "count": 36,
      "type": "SCALAR"
    },
    {
      "bufferView": 2,
      "byteOffset": 23496,
      "componentType": 5126,
      "count": 206,
      "max": [
        1615.6888427734375,
        2192.125732421875,
        761.0169067382813
      ],
      "min": [
        -1518.6859130859375,
        2172.124267578125,
        -21.014328002929688
      ],
      "type": "VEC3"
    },
    {
      "bufferView": 2,
      "byteOffset": 25968,
      "componentType": 5126,
      "count": 206,
      "max": [
        1.0,
        1.0,
        1.0
      ],
      "min": [
        -1.0,
        -1.0,
        -1.0
      ],
      "type": "VEC3"
    },
    {
      "bufferView": 1,
      "byteOffset": 31328,
      "componentType": 5126,
      "count": 206,
      "max": [
        1.9990234375,
        3.0
      ],
      "min": [
        0.0,
        1.0
      ],
      "type": "VEC2"
    },
    {
      "bufferView": 1,
      "byteOffset": 32976,
      "componentType": 5126,
      "count": 206,
      "max": [
        0.72607421875,
        0.9919357299804688
      ],
      "min": [
        0.00806427001953125,
        0.0087890625
      ],
      "type": "VEC2"
    },
    {
      "bufferView": 1,
      "byteOffset": 34624,
      "componentType": 5126,
      "count": 206,
      "max": [
        0.9052734375,
        0.9919357299804688
      ],
      "min": [
        0.00806427001953125,
        0.17138671875
      ],
      "type": "VEC2"
    },
    {
      "bufferView": 1,
      "byteOffset": 36272,
      "componentType": 5126,
      "count": 206,
      "max": [
        0.9375,
        0.9919357299804688
      ],
      "min": [
        0.00806427001953125,
        0.265625
      ],
      "type": "VEC2"
    },
    {
      "bufferView": 0,
      "byteOffset": 5832,
      "componentType": 5125,
      "count": 273,
      "type": "SCALAR"
    },
    {
      "bufferView": 2,
      "byteOffset": 28440,
      "componentType": 5126,
      "count": 115,
      "max": [
        -1522.09228515625,
        755.125,
        761.0169067382813
      ],
      "min": [
        -1542.09228515625,
        -719.875,
        -21.014328002929688
      ],
      "type": "VEC3"
    },
    {
      "bufferView": 2,
      "byteOffset": 29820,
      "componentType": 5126,
      "count": 115,
      "max": [
        1.0,
        1.0,
        1.0
      ],
      "min": [
        -1.0,
        -1.0,
        -1.0
      ],
      "type": "VEC3"
    },
    {
      "bufferView": 1,
      "byteOffset": 37920,
      "componentType": 5126,
      "count": 115,
      "max": [
        1.9990234375,
        3.0
      ],
      "min": [
        0.0,
        1.0
      ],
      "type": "VEC2"
    },
    {
      "bufferView": 1,
      "byteOffset": 38840,
      "componentType": 5126,
      "count": 115,
      "max": [
        0.72607421875,
        0.9919357299804688
      ],
      "min": [
        0.00806427001953125,
        0.0087890625
      ],
      "type": "VEC2"
    },
    {
      "bufferView": 1,
      "byteOffset": 39760,
      "componentType": 5126,
      "count": 115,
      "max": [
        0.9052734375,
        0.9919357299804688
      ],
      "min": [
        0.00806427001953125,
        0.17138671875
      ],
      "type": "VEC2"
    },
    {
      "bufferView": 1,
      "byteOffset": 40680,
      "componentType": 5126,
      "count": 115,
      "max": [
        0.98583984375,
        0.89520263671875
      ],
      "min": [
        0.040313720703125,
        0.265625
      ],
      "type": "VEC2"
    },
    {
      "bufferView": 0,
      "byteOffset": 6924,
      "componentType": 5125,
      "count": 315,
      "type": "SCALAR"
    },
    {
      "bufferView": 2,
      "byteOffset": 31200,
      "componentType": 5126,
      "count": 360,
      "max": [
        1631.65771484375,
        2203.625,
        1250.626220703125
      ],
      "min": [
        -1537.34228515625,
        -2145.875,
        719.3762817382813
      ],
      "type": "VEC3"
    },
    {
      "bufferView": 2,
      "byteOffset": 35520,
      "componentType": 5126,
      "count": 360,
      "max": [
        0.0,
        1.0,
        1.0
      ],
      "min": [
        -1.0,
        -1.0,
        -1.0
      ],
      "type": "VEC3"
    },
    {
      "bufferView": 1,
      "byteOffset": 41600,
      "componentType": 5126,
      "count": 360,
      "max": [
        2.0,
        3.0
      ],
      "min": [
        0.0,
        1.0
      ],
      "type": "VEC2"
    },
    {
      "bufferView": 1,
      "byteOffset": 44480,
      "componentType": 5126,
      "count": 360,
      "max": [
        0.96240234375,
        0.9919357299804688
      ],
      "min": [
        0.00806427001953125,
        0.0859375
      ],
      "type": "VEC2"
    },
    {
      "bufferView": 1,
      "byteOffset": 47360,
      "componentType": 5126,
      "count": 360,
      "max": [
        415.75,
        7581.0
      ],
      "min": [
        -10272.0,
        0.0
      ],
      "type": "VEC2"
    },
    {
      "bufferView": 1,
      "byteOffset": 50240,
      "componentType": 5126,
      "count": 360,
      "max": [
        0.9775390625,
        0.9919357299804688
      ],
      "min": [
        0.00806427001953125,
        0.585693359375
      ],
      "type": "VEC2"
    },
    {
      "bufferView": 0,
      "byteOffset": 8184,
      "componentType": 5125,
      "count": 360,
      "type": "SCALAR"
    },
    {
      "bufferView": 2,
      "byteOffset": 39840,
      "componentType": 5126,
      "count": 384,
      "max": [
        1609.17333984375,
        2185.0,
        11.001570701599121
      ],
      "min": [
        -1514.85791015625,
        -2144.25,
        -10.000046730041504
      ],
      "type": "VEC3"
    },
    {
      "bufferView": 2,
      "byteOffset": 44448,
      "componentType": 5126,
      "count": 384,
      "max": [
        1.0,
        1.0,
        1.0
      ],
      "min": [
        -1.0,
        -1.0,
        -1.0
      ],
      "type": "VEC3"
    },
    {
      "bufferView": 1,
      "byteOffset": 53120,
      "componentType": 5126,
      "count": 384,
      "max": [
        5.0,
        5.0
      ],
      "min": [
        -2.980232238769531e-07,
        0.0
      ],
      "type": "VEC2"
    },
    {
      "bufferView": 1,
      "byteOffset": 56192,
      "componentType": 5126,
      "count": 384,
      "max": [
        0.7099609375,
        0.9919357299804688
      ],
      "min": [
        0.00806427001953125,
        0.0078125
      ],
      "type": "VEC2"
    },
    {
      "bufferView": 1,
      "byteOffset": 59264,
      "componentType": 5126,
      "count": 384,
      "max": [
        0.7099609375,
        0.9919357299804688
      ],
      "min": [
        0.00806427001953125,
        0.0078125
      ],
      "type": "VEC2"
    },
    {
      "bufferView": 1,
      "byteOffset": 62336,
      "componentType": 5126,
      "count": 384,
      "max": [
        0.99169921875,
        0.943572998046875
      ],
      "min": [
        0.00806427001953125,
        0.201171875
      ],
      "type": "VEC2"
    },
    {
      "bufferView": 0,
      "byteOffset": 9624,
      "componentType": 5125,
      "count": 432,
      "type": "SCALAR"
    }
  ],
  "asset": {
    "extras": {
      "author": "OmegaRedZA (https://sketchfab.com/OmegaRedZA)",
      "license": "CC-BY-4.0 (http://creativecommons.org/licenses/by/4.0/)",
      "source": "https://sketchfab.com/3d-models/warehouse-building-0c37b0f92cb54e07a1e1c6c3df9f8439",
      "title": "Warehouse Building"
    },
    "generator": "Sketchfab-12.67.0",
    "version": "2.0"
  },
  "bufferViews": [
    {
      "buffer": 0,
      "byteLength": 11352,
      "name": "floatBufferViews",
      "target": 34963
    },
    {
      "buffer": 0,
      "byteLength": 65408,
      "byteOffset": 11352,
      "byteStride": 8,
      "name": "floatBufferViews",
      "target": 34962
    },
    {
      "buffer": 0,
      "byteLength": 49056,
      "byteOffset": 76760,
      "byteStride": 12,
      "name": "floatBufferViews",
      "target": 34962
    }
  ],
  "buffers": [
    {
      "byteLength": 125816,
      "uri": "scene.bin"
    }
  ],
  "images": [
    {
      "uri": "textures/WindowsIndustrial-frontSolid-OpenWindows_Mat_baseColor.png"
    },
    {
      "uri": "textures/WindowsIndustrial-frontSolid_Mat_baseColor.png"
    },
    {
      "uri": "textures/WindowsIndustrial-frontDoorclosed_Mat_baseColor.png"
    },
    {
      "uri": "textures/WindowsIndustrial-frontDoorOpen_Mat_baseColor.png"
    },
    {
      "uri": "textures/WindowsIndustrial-front_Mat_baseColor.png"
    },
    {
      "uri": "textures/11_-_Default_baseColor.jpeg"
    },
    {
      "uri": "textures/20_-_Default_baseColor.jpeg"
    }
  ],
  "materials": [
    {
      "doubleSided": true,
      "name": "WindowsIndustrial-frontSolid-OpenWindows_Mat",
      "pbrMetallicRoughness": {
        "baseColorTexture": {
          "index": 0
        },
        "metallicFactor": 0.0,
        "roughnessFactor": 0.9577051494623774
      }
    },
    {
      "doubleSided": true,
      "name": "WindowsIndustrial-frontSolid_Mat",
      "pbrMetallicRoughness": {
        "baseColorTexture": {
          "index": 1
        },
        "metallicFactor": 0.0,
        "roughnessFactor": 0.9577051494623774
      }
    },
    {
      "doubleSided": true,
      "name": "WindowsIndustrial-frontDoorclosed_Mat",
      "pbrMetallicRoughness": {
        "baseColorTexture": {
          "index": 2
        },
        "metallicFactor": 0.0,
        "roughnessFactor": 0.9577051494623774
      }
    },
    {
      "doubleSided": true,
      "name": "WindowsIndustrial-frontDoorOpen_Mat",
      "pbrMetallicRoughness": {
        "baseColorTexture": {
          "index": 3
        },
        "metallicFactor": 0.0,
        "roughnessFactor": 0.9577051494623774
      }
    },
    {
      "doubleSided": true,
      "name": "WindowsIndustrial-front_Mat",
      "pbrMetallicRoughness": {
        "baseColorTexture": {
          "index": 4
        },
        "metallicFactor": 0.0,
        "roughnessFactor": 0.9577051494623774
      }
    },
    {
      "doubleSided": true,
      "name": "11_-_Default",
      "pbrMetallicRoughness": {
        "baseColorTexture": {
          "index": 5
        },
        "metallicFactor": 0.0,
        "roughnessFactor": 0.8929713596
      }
    },
    {
      "doubleSided": true,
      "name": "20_-_Default",
      "pbrMetallicRoughness": {
        "baseColorTexture": {
          "index": 6
        },
        "metallicFactor": 0.0,
        "roughnessFactor": 0.8929713596497552
      }
    }
  ],
  "meshes": [
    {
      "name": "Factory002_WindowsIndustrial-frontSolid-OpenWindows_Mat_0",
      "primitives": [
        {
          "attributes": {
            "NORMAL": 1,
            "POSITION": 0,
            "TEXCOORD_0": 2,
            "TEXCOORD_1": 3,
            "TEXCOORD_2": 4,
            "TEXCOORD_3": 5
          },
          "indices": 6,
          "material": 0,
          "mode": 4
        }
      ]
    },
    {
      "name": "Factory002_WindowsIndustrial-frontSolid_Mat_0",
      "primitives": [
        {
          "attributes": {
            "NORMAL": 8,
            "POSITION": 7,
            "TEXCOORD_0": 9,
            "TEXCOORD_1": 10,
            "TEXCOORD_2": 11,
            "TEXCOORD_3": 12
          },
          "indices": 13,
          "material": 1,
          "mode": 4
        }
      ]
    },
    {
      "name": "Factory002_WindowsIndustrial-frontDoorclosed_Mat_0",
      "primitives": [
        {
          "attributes": {
            "NORMAL": 15,
            "POSITION": 14,
            "TEXCOORD_0": 16,
            "TEXCOORD_1": 17,
            "TEXCOORD_2": 18,
            "TEXCOORD_3": 19
          },
          "indices": 20,
          "material": 2,
          "mode": 4
        }
      ]
    },
    {
      "name": "Factory002_WindowsIndustrial-frontDoorOpen_Mat_0",
      "primitives": [
        {
          "attributes": {
            "NORMAL": 22,
            "POSITION": 21,
            "TEXCOORD_0": 23,
            "TEXCOORD_1": 24,
            "TEXCOORD_2": 25,
            "TEXCOORD_3": 26
          },
          "indices": 27,
          "material": 3,
          "mode": 4
        }
      ]
    },
    {
      "name": "Factory002_WindowsIndustrial-front_Mat_0",
      "primitives": [
        {
          "attributes": {
            "NORMAL": 29,
            "POSITION": 28,
            "TEXCOORD_0": 30,
            "TEXCOORD_1": 31,
            "TEXCOORD_2": 32,
            "TEXCOORD_3": 33
          },
          "indices": 34,
          "material": 4,
          "mode": 4
        }
      ]
    },
    {
      "name": "Factory002_11 - Default_0",
      "primitives": [
        {
          "attributes": {
            "NORMAL": 36,
            "POSITION": 35,
            "TEXCOORD_0": 37,
            "TEXCOORD_1": 38,
            "TEXCOORD_2": 39,
            "TEXCOORD_3": 40
          },
          "indices": 41,
          "material": 5,
          "mode": 4
        }
      ]
    },
    {
      "name": "Object001_20 - Default_0",
      "primitives": [
        {
          "attributes": {
            "NORMAL": 43,
            "POSITION": 42,
            "TEXCOORD_0": 44,
            "TEXCOORD_1": 45,
            "TEXCOORD_2": 46,
            "TEXCOORD_3": 47
          },
          "indices": 48,
          "material": 6,
          "mode": 4
        }
      ]
    }
  ],
  "nodes": [
    {
      "children": [
        1
      ],
      "matrix": [
        0.005137218162417412,
        0.0,
        0.0,
        0.0,
        0.0,
        1.1406915772876695e-18,
        -0.005137218162417412,
        0.0,
        0.0,
        0.005137218162417412,
        1.1406915772876695e-18,
        0.0,
        0.0,
        0.0,
        0.0,
        1.0
      ],
      "name": "Sketchfab_model"
    },
    {
      "children": [
        2
      ],
      "matrix": [
        1.0,
        0.0,
        0.0,
        0.0,
        0.0,
        0.0,
        1.0,
        0.0,
        0.0,
        -1.0,
        0.0,
        0.0,
        0.0,
        0.0,
        0.0,
        1.0
      ],
      "name": "cc020ec10d3e484ab6eb350963eb38d0.fbx"
    },
    {
      "children": [
        3,
        10
      ],
      "name": "RootNode"
    },
    {
      "children": [
        4,
        5,
        6,
        7,
        8,
        9
      ],
      "matrix": [
        1.0000005960464478,
        0.0,
        0.0,
        0.0,
        0.0,
        2.220447372739293e-16,
        -1.0000005960464478,
        0.0,
        0.0,
        1.0000005960464478,
        2.220447372739293e-16,
        0.0,
        0.0,
        0.0,
        0.0,
        1.0
      ],
      "name": "Factory002"
    },
    {
      "mesh": 0,
      "name": "Factory002_WindowsIndustrial-frontSolid-OpenWindows_Mat_0"
    },
    {
      "mesh": 1,
      "name": "Factory002_WindowsIndustrial-frontSolid_Mat_0"
    },
    {
      "mesh": 2,
      "name": "Factory002_WindowsIndustrial-frontDoorclosed_Mat_0"
    },
    {
      "mesh": 3,
      "name": "Factory002_WindowsIndustrial-frontDoorOpen_Mat_0"
    },
    {
      "mesh": 4,
      "name": "Factory002_WindowsIndustrial-front_Mat_0"
    },
    {
      "mesh": 5,
      "name": "Factory002_11 - Default_0"
    },
    {
      "children": [
        11
      ],
      "matrix": [
        1.0000005960464478,
        0.0,
        0.0,
        0.0,
        0.0,
        2.220447372739293e-16,
        -1.0000005960464478,
        0.0,
        0.0,
        1.0000005960464478,
        2.220447372739293e-16,
        0.0,
        0.0,
        0.0,
        0.0,
        1.0
      ],
      "name": "Object001"
    },
    {
      "mesh": 6,
      "name": "Object001_20 - Default_0"
    }
  ],
  "samplers": [
    {
      "magFilter": 9729,
      "minFilter": 9987,
      "wrapS": 10497,
      "wrapT": 10497
    }
  ],
  "scene": 0,
  "scenes": [
    {
      "name": "Sketchfab_Scene",
      "nodes": [
        0
      ]
    }
  ],
  "textures": [
    {
      "sampler": 0,
      "source": 0
    },
    {
      "sampler": 0,
      "source": 1
    },
    {
      "sampler": 0,
      "source": 2
    },
    {
      "sampler": 0,
      "source": 3
    },
    {
      "sampler": 0,
      "source": 4
    },
    {
      "sampler": 0,
      "source": 5
    },
    {
      "sampler": 0,
      "source": 6
    }
  ]
}
